<svg xmlns="http://www.w3.org/2000/svg" width="1316" height="478" fill="none" viewBox="0 0 1316 478"><g opacity=".4"><g filter="url(#filter0_f)"><path stroke="#3C3F6D" stroke-linecap="round" stroke-linejoin="round" stroke-width="2" d="M1076.98 416.739C1077.15 421.476 1076.16 423.703 1074.86 424.789C1073.53 425.905 1071.57 426.092 1069.09 425.965C1066.72 425.843 1064.14 425.197 1062.19 423.763C1060.3 422.366 1058.93 420.172 1059 416.723C1059.07 413.168 1060.21 411.016 1061.64 409.749C1063.08 408.464 1064.94 407.978 1066.61 408.001L1066.68 408.002C1068.58 408.028 1071.05 408.061 1073.11 409.132C1074.12 409.659 1075.03 410.439 1075.72 411.617C1076.41 412.803 1076.9 414.445 1076.98 416.739Z"/></g><path fill="#2D2F52" fill-rule="evenodd" d="M1224.52 102.498C1222.5 101.76 1220.27 102.797 1219.53 104.815L1215.52 115.776C1214.78 117.793 1215.82 120.028 1217.83 120.766L1217.83 120.766L1216.65 124.001C1216.53 124.338 1216.84 124.67 1217.19 124.562L1223.11 122.698L1236.91 127.749C1238.93 128.488 1241.17 127.451 1241.9 125.433L1245.92 114.472C1246.65 112.454 1245.62 110.22 1243.6 109.481L1224.52 102.498Z" clip-rule="evenodd"/><path fill="#404475" fill-rule="evenodd" d="M1237.28 91.5188C1235.27 90.7803 1233.03 91.8174 1232.29 93.8353L1226.05 110.886C1225.32 112.903 1226.35 115.138 1228.37 115.876L1255.98 125.979C1257.99 126.718 1260.23 125.68 1260.97 123.663L1267.21 106.612C1267.94 104.594 1266.91 102.36 1264.89 101.622L1237.28 91.5188ZM1248.67 123.305L1253.95 125.236L1252.76 128.472C1252.64 128.808 1252.18 128.857 1251.99 128.554L1248.67 123.305Z" clip-rule="evenodd"/><circle cx="1240.95" cy="106.668" r="2.161" fill="#22B8B5" transform="rotate(20.1013 1240.95 106.668)"/><circle cx="1246.63" cy="108.748" r="2.161" fill="#22B8B5" transform="rotate(20.1013 1246.63 108.748)"/><circle cx="1252.31" cy="110.828" r="2.161" fill="#22B8B5" transform="rotate(20.1013 1252.31 110.828)"/><rect width="12.327" height="10.627" x="98.872" y="406.101" fill="#8F96F2" rx="5.313" transform="rotate(-34.2437 98.8724 406.101)"/><rect width="10.627" height="21.254" x="76.307" y="437.915" fill="#2C2F51" rx="5.313" transform="rotate(-34.2437 76.3073 437.915)"/><rect width="4.251" height="49.734" x="91.032" y="387.783" fill="#2C2F51" rx="2.125" transform="rotate(-34.2437 91.0319 387.783)"/><rect width="12.327" height="15.303" x="54.807" y="433.525" fill="#2C2F51" rx="6.164" transform="rotate(-34.2437 54.807 433.525)"/><path fill="url(#paint0_linear)" d="M86.2879 433.692C86.2879 433.692 98.8374 420.779 117.702 426.963L92.1083 389.365C91.2692 403.647 82.4059 411.24 77.5193 414.369C75.9331 415.384 75.3205 417.581 76.3802 419.138L80.3081 424.908L86.2879 433.692Z"/><rect width="23.379" height="28.905" x="58.008" y="423.119" fill="#383B66" rx="6.801" transform="rotate(-34.2437 58.0077 423.119)"/><path stroke="url(#paint1_linear)" stroke-linecap="round" stroke-linejoin="round" stroke-width="1.4" d="M126.22 406.299C127.233 402.862 126.934 399.039 125.084 395.644C123.234 392.249 120.184 389.926 116.747 388.913"/><path stroke="url(#paint2_linear)" stroke-linecap="round" stroke-linejoin="round" stroke-width="1.4" d="M134.854 408.843C136.517 403.196 136.026 396.915 132.987 391.338C129.963 385.788 124.984 381.98 119.37 380.305"/><path stroke="url(#paint3_linear)" stroke-linecap="round" stroke-linejoin="round" stroke-width="1.4" d="M145.422 411.894C147.861 403.561 147.129 394.3 142.646 386.074C138.164 377.849 130.778 372.213 122.455 369.745"/><g filter="url(#filter1_f)"><path stroke="url(#paint4_linear)" stroke-width="2" d="M1113.38 312L1113.86 321M1109 316.5H1118"/></g><g filter="url(#filter2_f)"><path stroke="#8F96F2" stroke-width="2" d="M35 228L47 257"/></g><g filter="url(#filter3_f)"><path stroke="url(#paint5_linear)" stroke-width="2" d="M139.034 113L137.534 110.742C136.322 108.919 137.341 106.449 139.486 106.01V106.01C141.436 105.611 142.504 103.497 141.668 101.69L141.397 101.106C140.294 98.7232 142.035 96 144.661 96H149"/></g><path stroke="url(#paint6_linear)" stroke-width="2" d="M1286.27 217C1285.88 215.169 1285.62 211.14 1287.65 209.675C1290.18 207.843 1292.71 210.361 1295.01 207.614C1297.31 204.867 1294.09 200.976 1298 198"/><g filter="url(#filter4_f)"><circle cx="430.5" cy="9.5" r="4.5" stroke="#8F96F2" stroke-linecap="round" stroke-linejoin="round" stroke-width="2"/></g><path fill="#454874" d="M52 160.5L69.5 153.5L20.5 152.5L0 158.5L52 160.5Z"/><path fill="#454874" d="M68.5 150.5L77 124H34L25 149.5L68.5 150.5Z"/><path stroke="url(#paint7_linear)" stroke-linecap="round" stroke-linejoin="round" d="M52.5295 128H63.7059M44.8824 131.081H52.3824M52.5295 134.162H63.7059M33.1177 137.243H41.353M41.353 140.838H48.853M49 143.919H60.1765M30.1765 143.919H44.8824M41.353 147H48.853"/><path stroke="url(#paint8_linear)" stroke-linecap="round" stroke-linejoin="round" d="M39 128H48.4118M69 131.081H57.2353M36.6471 131.081H41.3529M34.8824 134.162H48.4118M44.8824 137.243H52.3824M61.9412 137.243H57.2353M65.4706 140.838H53.7059M31.3529 140.838H37.8235M58.4118 147H53.7059M29 147H37.8235"/><path fill="#2A2D4B" fill-rule="evenodd" d="M20.5 152.5L69.5 153.5L81 120.5L31.5 120L20.5 152.5ZM77 124L68.5 150.5L25 149.5L34 124H77Z" clip-rule="evenodd"/><path stroke="url(#paint9_linear)" stroke-linecap="round" stroke-linejoin="round" d="M1273.34 396.475L1272.81 393.321C1272.69 392.603 1271.86 392.252 1271.26 392.661L1265.97 396.255C1265.36 396.664 1264.54 396.312 1264.42 395.595L1263.35 389.286C1263.23 388.568 1262.4 388.217 1261.8 388.626L1256.51 392.22C1255.9 392.628 1255.08 392.277 1254.96 391.56L1253.89 385.25C1253.77 384.533 1252.94 384.182 1252.34 384.59L1247.04 388.184C1246.44 388.593 1245.62 388.242 1245.5 387.524L1244.43 381.215C1244.3 380.498 1243.48 380.146 1242.88 380.555L1240.23 382.352"/><path fill="#404475" d="M1275.57 345.24C1258.78 338.078 1239.36 345.885 1232.19 362.677L1231.38 364.585L1235.54 366.64C1241.91 351.691 1258.28 344.349 1273.23 350.725C1288.18 357.1 1294.21 373.995 1287.83 388.943L1292.19 390.521L1293.01 388.613C1300.17 371.821 1292.36 352.402 1275.57 345.24Z"/><path fill="#404475" d="M1225.72 363.319C1223.09 362.195 1220.04 363.42 1218.92 366.054L1215.76 373.447C1214.64 376.081 1215.86 379.127 1218.5 380.25L1225.72 363.319Z"/><path fill="#404475" d="M1218.5 380.25L1225.72 363.319L1226.64 363.711C1227.56 364.104 1227.99 365.17 1227.6 366.092L1221.8 379.685C1221.41 380.607 1220.34 381.036 1219.42 380.643L1218.5 380.25Z"/><path fill="#404475" d="M1297.02 393.73C1299.66 394.854 1300.88 397.9 1299.76 400.534L1296.61 407.927C1295.48 410.561 1292.44 411.786 1289.8 410.662L1297.02 393.73Z"/><path fill="#404475" d="M1289.8 410.662L1297.02 393.73L1296.21 393.382C1295.28 392.989 1294.22 393.417 1293.82 394.339L1288.03 407.932C1287.63 408.854 1288.06 409.92 1288.98 410.314L1289.8 410.662Z"/><path fill="#5D62A4" d="M1287.14 387.178C1287.57 386.162 1288.74 385.689 1289.76 386.123L1293.13 387.561C1296.18 388.861 1297.6 392.386 1296.3 395.434L1290.43 409.197C1289.13 412.245 1285.6 413.662 1282.55 412.362L1279.18 410.924C1278.17 410.491 1277.69 409.316 1278.13 408.3L1287.14 387.178Z"/><path fill="#5D62A4" d="M1224.99 365.022C1226.29 361.974 1229.82 360.557 1232.87 361.857L1236.24 363.295C1237.26 363.729 1237.73 364.904 1237.29 365.92L1228.29 387.042C1227.85 388.058 1226.68 388.53 1225.66 388.097L1222.29 386.658C1219.24 385.358 1217.82 381.833 1219.12 378.785L1224.99 365.022Z"/><g filter="url(#filter5_f)"><path fill="url(#paint10_linear)" d="M995.103 456.817C995.47 456.074 996.53 456.074 996.897 456.817L999 461.079C999.146 461.374 999.427 461.579 999.753 461.626L1004.46 462.309C1005.28 462.429 1005.6 463.437 1005.01 464.015L1001.61 467.333C1001.37 467.562 1001.26 467.893 1001.32 468.218L1002.12 472.902C1002.26 473.719 1001.41 474.342 1000.67 473.956L996.465 471.745C996.174 471.591 995.826 471.591 995.535 471.745L991.328 473.956C990.594 474.342 989.737 473.719 989.877 472.902L990.68 468.218C990.736 467.893 990.628 467.562 990.393 467.333L986.989 464.015C986.396 463.437 986.723 462.429 987.544 462.309L992.247 461.626C992.573 461.579 992.854 461.374 993 461.079L995.103 456.817Z"/></g></g><defs><filter id="filter0_f" width="28" height="28" x="1054" y="403" color-interpolation-filters="sRGB" filterUnits="userSpaceOnUse"><feFlood flood-opacity="0" result="BackgroundImageFix"/><feBlend in="SourceGraphic" in2="BackgroundImageFix" mode="normal" result="shape"/><feGaussianBlur result="effect1_foregroundBlur" stdDeviation="2"/></filter><filter id="filter1_f" width="13" height="13.108" x="1107" y="309.946" color-interpolation-filters="sRGB" filterUnits="userSpaceOnUse"><feFlood flood-opacity="0" result="BackgroundImageFix"/><feBlend in="SourceGraphic" in2="BackgroundImageFix" mode="normal" result="shape"/><feGaussianBlur result="effect1_foregroundBlur" stdDeviation="1"/></filter><filter id="filter2_f" width="17.848" height="33.765" x="32.076" y="225.617" color-interpolation-filters="sRGB" filterUnits="userSpaceOnUse"><feFlood flood-opacity="0" result="BackgroundImageFix"/><feBlend in="SourceGraphic" in2="BackgroundImageFix" mode="normal" result="shape"/><feGaussianBlur result="effect1_foregroundBlur" stdDeviation="1"/></filter><filter id="filter3_f" width="16.985" height="22.553" x="134.015" y="93" color-interpolation-filters="sRGB" filterUnits="userSpaceOnUse"><feFlood flood-opacity="0" result="BackgroundImageFix"/><feBlend in="SourceGraphic" in2="BackgroundImageFix" mode="normal" result="shape"/><feGaussianBlur result="effect1_foregroundBlur" stdDeviation="1"/></filter><filter id="filter4_f" width="19" height="19" x="421" y="0" color-interpolation-filters="sRGB" filterUnits="userSpaceOnUse"><feFlood flood-opacity="0" result="BackgroundImageFix"/><feBlend in="SourceGraphic" in2="BackgroundImageFix" mode="normal" result="shape"/><feGaussianBlur result="effect1_foregroundBlur" stdDeviation="2"/></filter><filter id="filter5_f" width="24.628" height="23.814" x="983.686" y="453.26" color-interpolation-filters="sRGB" filterUnits="userSpaceOnUse"><feFlood flood-opacity="0" result="BackgroundImageFix"/><feBlend in="SourceGraphic" in2="BackgroundImageFix" mode="normal" result="shape"/><feGaussianBlur result="effect1_foregroundBlur" stdDeviation="1.5"/></filter><linearGradient id="paint0_linear" x1="108.549" x2="77.518" y1="400.853" y2="426.782" gradientUnits="userSpaceOnUse"><stop stop-color="#383B66"/><stop offset="1" stop-color="#282A49"/></linearGradient><linearGradient id="paint1_linear" x1="120.336" x2="116.797" y1="386.958" y2="389" gradientUnits="userSpaceOnUse"><stop stop-color="#A209D4"/><stop offset="1" stop-color="#D61382"/></linearGradient><linearGradient id="paint2_linear" x1="125.214" x2="119.401" y1="377.12" y2="380.476" gradientUnits="userSpaceOnUse"><stop stop-color="#A209D4"/><stop offset="1" stop-color="#D61382"/></linearGradient><linearGradient id="paint3_linear" x1="131.133" x2="122.576" y1="365.016" y2="369.955" gradientUnits="userSpaceOnUse"><stop stop-color="#A209D4"/><stop offset="1" stop-color="#D61382"/></linearGradient><linearGradient id="paint4_linear" x1="1109" x2="1110.05" y1="312.03" y2="320.876" gradientUnits="userSpaceOnUse"><stop stop-color="#409BBC"/><stop offset="1" stop-color="#0FCAB0"/></linearGradient><linearGradient id="paint5_linear" x1="135" x2="137.389" y1="96.057" y2="112.656" gradientUnits="userSpaceOnUse"><stop stop-color="#A209D4"/><stop offset="1" stop-color="#D61382"/></linearGradient><linearGradient id="paint6_linear" x1="1286" x2="1289.43" y1="198.063" y2="216.356" gradientUnits="userSpaceOnUse"><stop stop-color="#409BBC"/><stop offset="1" stop-color="#0FCAB0"/></linearGradient><linearGradient id="paint7_linear" x1="29" x2="30.063" y1="128.063" y2="146.94" gradientUnits="userSpaceOnUse"><stop stop-color="#C540F0"/><stop offset="1" stop-color="#FB45AC"/><stop offset="1" stop-color="#FE4EB2"/></linearGradient><linearGradient id="paint8_linear" x1="32" x2="66.917" y1="134.001" y2="132.531" gradientUnits="userSpaceOnUse"><stop stop-color="#01A3EB"/><stop offset="1" stop-color="#79AAE0"/></linearGradient><linearGradient id="paint9_linear" x1="1241.79" x2="1238.86" y1="378.697" y2="386.109" gradientUnits="userSpaceOnUse"><stop stop-color="#A209D4"/><stop offset="1" stop-color="#D61382"/></linearGradient><linearGradient id="paint10_linear" x1="985" x2="1007" y1="466" y2="466" gradientUnits="userSpaceOnUse"><stop stop-color="#A109D5"/><stop offset="1" stop-color="#D9147D"/></linearGradient></defs></svg>