<svg xmlns="http://www.w3.org/2000/svg" width="702" height="501" fill="none" viewBox="0 0 702 501"><g id="Group 257"><g id="bgs" fill="#1D1E4F"><path id="Rectangle 79" d="M460 59c0-9.7 7-18 16.4-19.6l202.3-35A19.8 19.8 0 01702 23.9V477c0 12.2-11 21.6-23.2 19.5l-202.3-35A19.8 19.8 0 01460 442V59z"/><path id="Rectangle 91" d="M460 58.6c0-9.7 7-17.9 16.4-19.5L678.7 4A19.8 19.8 0 01702 23.4v453.2c0 12.3-11 21.6-23.2 19.5l-202.3-35a19.8 19.8 0 01-16.4-19.5V58.6z"/><path id="Rectangle 80" d="M264 94.4c0-9.3 6.5-17.4 15.7-19.3L404 48.9a19.8 19.8 0 0123.9 19.4v362.5c0 12.5-11.6 22-23.9 19.3L279.7 424c-9.2-2-15.8-10-15.8-19.4V94.4z"/><path id="Rectangle 83" d="M9.5 152.1c0-9 6-16.8 14.6-19.1L78 118.4c12.6-3.4 25 6.1 25 19.1V377c0 13-12.4 22.5-25 19.1l-54-14.6a19.8 19.8 0 01-14.5-19V152z"/><path id="Rectangle 81" d="M116.8 278c0-11 8.9-19.8 19.8-19.8h85.9c10.9 0 19.8 8.8 19.8 19.8v120.6c0 12.3-11.1 21.6-23.2 19.5l-85.8-14.8a19.8 19.8 0 01-16.5-19.5V278z"/><path id="Rectangle 82" d="M116.8 125.2c0-9.4 6.7-17.6 16-19.4l85.8-17.2c12.2-2.5 23.7 6.9 23.7 19.4v113.3c0 11-8.9 19.8-19.8 19.8h-85.9c-11 0-19.8-8.9-19.8-19.8v-96.1z"/></g><g id="place01"><mask id="mask0" width="243" height="494" x="459" y="3" maskUnits="userSpaceOnUse"><path id="Rectangle 84" fill="#FFF" d="M460 58.6c0-9.7 7-17.9 16.4-19.5L678.7 4A19.8 19.8 0 01702 23.4v453.2c0 12.3-11 21.6-23.2 19.5l-202.3-35a19.8 19.8 0 01-16.4-19.5V58.6z"/></mask><g mask="url(#mask0)"><g id="character"><g id="Group 228"><g id="Vector 219"><path fill="#191A45" d="M513.5 431.1l.7 3.5a45.3 45.3 0 009.8-11.3 55 55 0 003.3-6c-14.2 0-20.9-11.6-12.3-13 7-1.2 11.6 7 13 11.3a55.3 55.3 0 003.7-12.3c-4.5 0-13.2-1.8-11.3-10 2-8.2 8.6 2 11.6 8.2.4-2.6.6-5.3.6-8.2-5.2-23 9-27.9 9.2-14.8.1 10.4-6 14.2-9.2 14.8a59 59 0 01-2.3 16c3.3-5.9 11.5-15.9 18.1-8.8 8.4 8.8-12.2 14.7-18.6 10.6a55.3 55.3 0 01-5.8 12.2c2.3-3.3 18-12 20.2-2.1 2.1 10-17.4 8.6-22.5 5.4a45.3 45.3 0 01-7.5 8l-.7-3.5c-1.6-2.1-4.2-6-7-11 2.1 4-21.3 9.7-19.3 0 1.5-7.9 12.7-4.6 18.1-2-1.4-2.7-2.9-5.6-4.3-8.8-5.4 4.4-26.4-.8-19.7-7.8 5.3-5.6 14.8 1.6 19 6a118.7 118.7 0 01-4-10.4c-6-.5-17.8-4-16-14 2.3-12.6 17.5 6.8 16 14l.8 2.2c0-3.4 1.6-10.2 7.5-10.2 7.3 0 1.7 9-7.5 10.2 1 2.9 2 5.6 3.1 8.2-.3-3.2.2-9.6 4.4-9.6 5.2 0 2 10.7-3.6 11.4a134.6 134.6 0 0012.5 21.8c-2.1-10.2-4.6-25.9-4.5-37.8 0-2.9.2-5.5.6-7.8-8.3 2.2-9.7-3.8-9.4-7 6.7-.3 9 4.5 9.4 7 .3-2.4.9-4.4 1.7-5.9-3-2.1-7-8.4.5-16.6 3.2 2.5 7.7 9.3-.5 16.6-.8 1.5-1.4 3.5-1.7 5.9-.4 2.3-.6 5-.6 7.8.2-3 2.6-10.3 11-14.5 10.3-5.2 10 13.5-11 14.5 0 12 2.4 27.6 4.5 37.8z"/><path stroke="#191A45" d="M512.3 436l2-1.4m18.3-41.3a59 59 0 01-.6 8.2m.6-8.2c3.1-.6 9.3-4.4 9.2-14.8-.2-13-14.4-8.2-9.2 14.8zm-18.4 41.3l-.7-3.5m.7 3.5c2.3-1.9 5-4.6 7.5-8m-10.4-47c-3-2.1-7-8.4.5-16.6 3.2 2.5 7.7 9.3-.5 16.6zm0 0c-.8 1.5-1.4 3.5-1.7 5.9m3.9 45.6c-1.6-2.1-4.2-6-7-11m7 11c-2.1-10.2-4.6-25.9-4.5-37.8m-12.7 3.8l.8 2.2m-.8-2.2c-6-.5-17.8-4-16-14 2.3-12.6 17.5 6.8 16 14zm9 21c-5.4-2.6-16.6-5.9-18.1 2-2 9.7 21.4 4 19.2 0m-1-2l1 2m-1-2c-1.5-2.7-3-5.6-4.4-8.8m-.8-1.8c-4-4.4-13.6-11.6-18.9-6-6.7 7 14.3 12.2 19.7 7.8m-.8-1.8l.8 1.8m-.8-1.8c-.3-3.2.2-9.6 4.4-9.6 5.2 0 2 10.7-3.6 11.4m-.8-1.8c-1.1-2.6-2.2-5.3-3.1-8.2m26.9 24c2.3-3.3 18-12 20.2-2.1 2.1 10-17.4 8.6-22.5 5.4m2.3-3.3l-2.3 3.3m2.3-3.3a55 55 0 003.3-6m3-8c3.3-5.9 11.5-15.9 18.1-8.8 8.4 8.8-12.2 14.7-18.6 10.6m.5-1.8l-.5 1.8m.5-1.8c.6-2 1-4 1.4-6m-2 7.8c-.5 1.6-1 3-1.7 4.5m0 0c-1.4-4.2-6-12.5-13-11.4-8.6 1.5-1.9 13.2 12.3 13m.7-1.6l-.7 1.7m4.4-14c-4.5 0-13.2-1.8-11.3-10 2-8.2 8.6 2 11.6 8.2m-.3 1.8l.3-1.8m-23-8.2c.2-3 2.6-10.3 11-14.5 10.3-5.2 10 13.5-11 14.5zm0 0c0-2.9.2-5.5.6-7.8M497 399.3c0-3.4 1.6-10.2 7.5-10.2 7.3 0 1.7 9-7.5 10.2zm12.5-13.8c-.4-2.5-2.7-7.3-9.4-7-.3 3.2 1 9.2 9.4 7z"/></g><rect id="Rectangle 97" width="33.6" height="49.2" x="498.1" y="431.8" fill="#22245F" rx="3.9"/></g><g id="Group 200"><path id="Vector 217" fill="#F4A392" d="M662.4 459.6c-1.1-3.2-12.7-10.4-15.2-11.1 1-6.1 4.3-16.7 9.8-10 7 8.2 12.3 10.1 13.7 15 1.4 4.8-4.4 19.7-7.1 19.6-2.7-.1 0-10.3-1.2-13.5z"/><path id="Vector 218" fill="#F4A392" d="M625 459.6c-1.2-3.2-12.8-10.4-15.2-11.1 1-6.1 4.3-16.7 9.8-10 6.9 8.2 12.3 10.1 13.7 15 1.4 4.8-4.4 19.6-7.2 19.6-2.7-.1 0-10.3-1.1-13.5z"/><path id="Vector" fill="#292C6B" d="M655.3 453c-2.5 0-114.7-48.2-89.5-81.8 8.8-10.3 64-17.3 64-17.3l2.9 19.8-30.3 4s16.2.2 30.3 28.3c10.7 21.5 24.3 29.6 29 36.2 1.3 1.7 2 5.1 0 7.7-1.9 2.6-3.8 3.2-6.4 3.1z"/><path id="Vector_2" fill="#363983" d="M685.2 349.3l.6 3c3.9 15 1.8 31.2-19.5 42.8-15.2 8.3-66.7 0-66.7 0-.7 13.5 37 49.6 28.6 56.8-2 1.7-3.9 3.8-9.7 2.5-5.8-1.3-34.2-28.4-43.8-42.6-9.7-14.1-20-28.3-9.8-40 10.7-13.3 43.3-11.6 71.1-18 13.5 2.6 38.3-2.2 49.2-4.5z"/><path id="Vector 163" fill="#E6836E" d="M580.4 299.4c3 .4 8.8.4 7.7-3.5-.3-1-.5-2.3-.5-3.7 0-6-2.3-16.4-4.4-19.1-2.1-2.8-.7 4.8-.7 6.9 0 2-5-4.2-10.5-4.2-5.6 0-8.4 0-6.3 4.9 2 4.8 8 8.6 8.9 10.2 3.8 3.6 5.8 8 5.8 8.5z"/><path id="Vector_3" fill="#E6836E" d="M618.4 322.7c5.5 0 11.8-53.8 16.6-55.2 4.8-1.4 6.1 55.2 6.1 55.2s-7.6 25.2-20.6 25.9c-13 .7-38.5-44.2-39.8-49-1.4-4.8 5.2-9.8 8-6.4 2.7 3.5 24.2 29.5 29.7 29.5z"/><path id="Vector 213" fill="#2F3176" d="M683 279.5c-6.4-12.5-20.5-20.9-23.3-24-3.7-1.7-11.6-1.2-19.5 5-15.8 12.6-16.5 47.6-18.2 64.6-1.8 17.1-20.2 32.5-13.8 37.7 6.5 5.2 49.1 10.2 60 9.2 10.7-.9 12 16.9 20.3 5.5 8.4-11.4 3-81.2-5.6-98z"/><path id="Vector 126" fill="#E6836E" d="M640.2 264.3c-.8 3.2-4 14.2 0 14.2 2.7-3.2 18.8-18.9 19.9-19.6 1-.8.5-3 .2-5.4-.4-2.4 0-8.5.4-11.6l-18.7 7.8c-.4 3.8-1.2 12-1.8 14.6z"/><path id="Vector 74" fill="#F4A392" d="M641.7 258.7c10 1.1 17.6-4.4 20.2-7.4 4.1-.7 5-3.2 5.4-7.2.7-4.3.6-12.4.5-15.8L633 217.9c1.8 1.2 5.1 6.1 3.9 15.7-1.6 12-.6 24.6 4.8 25.1z"/><path id="Vector 75" fill="#121334" d="M635.3 229.7c-.3 2.8.8 5 1.4 5.7-.2-6.8 1.3-8.7 2-8.8 3 4.7 11.8 5 15.8 4.6-1 6.8 2.7 9.5 4 10.3 1.2.5 1.6 2.8 1.7 3.9.3-1.4 1.7-4.3 4.2-4.5 2.6-.2 3 1.9 3 3 10.2-9.9 5.7-18.3 2.2-21.2.1-12.5-17.3-14.3-25.7-9.1a16 16 0 01-16 .6c-1.4 4.4 2 8 4 9.4-1.1-.6-3-.5-3.8-.4.2 3 4.8 5.6 7.2 6.5z"/><path id="Vector 165" fill="#F4A392" d="M583.9 343l13.1 1.7 3.2-7c-.8-.2-2.7-1.3-4.3-3.3-2-2.5-8.4-7.3-12.3-8.3-4-1-2.6 2-1.4 2.1 1.1.2 6 3 5.3 4-.7 1-9.4-3.4-15.3 1.5-5.8 5 7.7 8.9 11.7 9.4z"/><path id="Vector_4" fill="#F4A392" d="M595.8 344.8c2.6 1 40.8 21.7 56.2 16 8-2.9 15.1-16.7 20.2-31-4 .6-14.4 0-24.2-7.7-1.8 11-3.6 19-5.4 18.8-1.5-.1-41.2-6.7-44.7-5.6-3.5 1-4.8 8.6-2.1 9.5z"/><path id="Vector 124" stroke="#C7C8EE" stroke-linecap="round" stroke-linejoin="round" d="M647.6 318.3c.4-8.9.4-23.9 2.6-31.2 4.9-16.2 21-14.4 25.3-8"/><rect id="Rectangle 94" width="3.9" height="111" x="670.8" y="395.1" fill="#4A4C96" rx="1.9"/><rect id="Rectangle 95" width="3.9" height="111" x="633.4" y="395.1" fill="#4A4C96" rx="1.9"/><path id="Rectangle 96" fill="#4A4C96" d="M636 473.8h38.7v3.9H636z"/><rect id="Rectangle 93" width="65.8" height="7.7" x="623.1" y="391.2" fill="#5659A5" rx="3.9"/></g><g id="Group 177"><path id="Vector 200" fill="#4A4C96" d="M499.2 254l11 43.5c-3.5 3-10.6 9.6-12 12.2-1.4 2.5-5.7 3.7-7.8 4L475.6 261l.9-6 22.7-1z"/><path id="Vector 199" fill="#23255F" d="M510.1 297.4l-17.6 16 47.1 22.2 13.3 4-.2-26.2-42.6-16z"/><path id="Vector 198" fill="#111233" d="M472.7 254.6l3.7.5 16.3 58.3 60.5 26.6-2.7 2.6-61-27-16.8-61z"/><g id="Union" filter="url(#filter0_f)"><path fill="#000" fill-opacity=".3" d="M497.1 333.6l30 12.2-4.7 5-26.3-10.2 1-7z"/></g><g id="Union_2" fill-opacity=".2"><path fill="url(#paint0_linear)" d="M510 297l-17.5 16.3L663 229l-153 68z"/><path fill="url(#paint1_linear)" d="M476.3 254.8l16.2 58.5L510 297l-11-43.4-22.7 1.2z"/><path fill="url(#paint2_linear)" d="M510 297l153-68-164 24.6 11 43.4z"/><path fill="url(#paint3_linear)" d="M476.3 254.8l22.7-1.2L663 229l-186.7 25.8z"/></g></g><g id="Group 227"><path id="Vector 271" fill="#262865" d="M617.3 195.2v32.5c-3.5-7.5-19.5-12-33.5-12s-33.5.5-49 0-23.8-8.2-23.8-20.5 6.3-19 18.8-19 47.5-.5 64 0 23.5 6 23.5 19z"/><rect id="Rectangle 106" width="84" height="2" fill="#6466C5" rx="1" transform="matrix(-1 0 0 1 608 188)"/><rect id="Rectangle 107" width="67" height="2" fill="#6466C5" rx="1" transform="matrix(-1 0 0 1 608 195)"/><rect id="Rectangle 108" width="40" height="2" fill="#6466C5" rx="1" transform="matrix(-1 0 0 1 608 202)"/></g></g><g id="Group 174"><path id="Vector 201" fill="url(#paint4_linear)" d="M772 175.8L458.7 45.2l14.4-68.4H755l17 199z"/><g id="Group 177_2"><g id="Union_3" filter="url(#filter1_f)"><path fill="#000" fill-opacity=".3" d="M495.2 422.5l32.3 13.3-5 5.4-28.5-11 1.2-7.7z"/></g></g></g></g></g><g id="place02" opacity=".9"><mask id="mask1" width="165" height="403" x="263" y="48" maskUnits="userSpaceOnUse"><path id="Rectangle 84_2" fill="#FFF" d="M264 94.4c0-9.3 6.5-17.4 15.7-19.3L404 48.9a19.8 19.8 0 0123.9 19.4v362.5c0 12.5-11.6 22-23.9 19.3L279.7 424c-9.2-2-15.8-10-15.8-19.4V94.4z"/></mask><g mask="url(#mask1)"><g id="character_2"><g id="Group 226"><path id="Vector 264" fill="#121334" d="M288 371.8c-10.8-2-23-34-15.8-50.4 9.1-15.5 30.1-7.2 32.7-5.6 2.6 1.7 27.8 26.2 31.2 30.2 3.5 3.9-1.2 20.1-1.6 25.8-.3 5.7-1.1 6.4-4 6.2-3-.2-31.7-4.3-42.5-6.2z"/><ellipse id="Ellipse 68" cx="305.7" cy="420.4" fill="#1B1C47" rx="20.5" ry="2.2" transform="rotate(3.6 305.7 420.4)"/><path id="Rectangle 100" fill="#1B1C47" d="M304.5 373.8h5.4v46.9h-5.4z"/><path id="Vector 256" fill="#F4A392" d="M370.3 408.7c-1-1.8-5.2-11.7-5-14.4.2-2.7 4-1.3 4-1.3 1.4 2.2 3.3 5.7 6.7 8.1 4.3 3 7.9-.2 10.1-.3 2.2-.1 1.4 2.8-1.5 5.3s-12.7 5.1-14.3 2.6z"/><path id="Vector 139" fill="#F4A392" d="M351.9 412.8c-4.8-2-7-7-7.6-9.2l-3.9-2.3c0 4.5-2.8 14.2.1 15.4 3 1.2 16.7 4.2 19.4 2.3 2.6-2-2.1-3.7-8-6.2z"/><path id="Vector 258" fill="#2E3078" d="M347.3 400.5c-.1 2.5-.2 7.7-5.6 7.3-3.2-.2-3.8-10.6-3.3-19 .4-6.7 1.4-13.6 1.8-16.2-1.7 0-33-3.3-35.4-3.4-2.4-.2 8-12.9-4-13.6-9.7-.7-2.8-13.4 2-19.7l17.9 1.1 1.7 8.5c.3 2 17.8 4.1 28.8 5 11 1 5.5 18.7 3.3 23a167 167 0 00-7.2 27z"/><path id="Vector 257" fill="#363983" d="M370 390c1.4 4.6 2 9.8-3.6 9.5-3.6-5.3-11.2-17-12.5-20.6-1.7-4.5 2.1-6.3-.1-17.8-2.3-11.5-28.9 7.1-42.4 8.7-13.4 1.6-21.2-3.5-22.8-14-1.6-10.5 5.7-19.2 8.5-21.5 2.9-2.3 14.3-2.3 9.5 3-4.8 5.5 1.5 7.3 4 7.5 2.4.2 33.8-3 41.5-.1 7.7 3 16.4 40.8 17.9 45.4z"/><path id="Vector 265" fill="#1B1C47" d="M283.3 344.6c-4.6-.3-7.6-6-14-6.6v1c-.2 16.2 5 34.3 12.6 35.7 10.8 1.9 45.8 2.9 48.8 3 3 .2 3.7-.5 4-6.1l-23.2-1.5c-6.2-.4-5.6-2.1-7-3.2-2-8.5-16.5-22-21.2-22.3z"/><path id="Vector 149" fill="#121334" d="M290.8 294c.8 6.3 6 15.7 11.8 16.7 11.7-1.1 29.9-7.8 31.3-16 1.8-10.1-5.7-11.9-7.2-16.8-1.4-4.8 3.4-4.4 0-11.7a17.3 17.3 0 00-24.4-7.2c-10.7 5.9-7.7 18.4-7 22.4.9 4-5.6 5-4.5 12.7z"/><path id="Vector 142" fill="#4C4E9B" d="M304.3 289.6c-8.1.7-12.8 11.8-14 17.2 1.4 9.5 4.2 29.3 3.7 32-.7 3.5 28.2 12.6 29.9 3.7 1.7-9 .6-3.7-.8-11-1.4-7.4-.6-11.3 1.8-12.3 2.3-1 6.5-4.4 2.5-16.6-4-12.2-13-13.9-23.1-13z"/><path id="Vector 268" fill="#E6836E" d="M331 317.5c-1.4-.4 0-3.7-1.4-6.5l-7.3 6c-.5 2.9-.7 9 2.3 10 3.8 1.5 19.3-4.8 22.7-6.5 2.8-1.3 13.2-4.8 15.2-6.4 2-1.5 3.5-6 1.3-6.6-2.7-.7-7.6 4.2-8.8 3.9-1.1-.3 1.4-5.4.3-5.7-1.2-.3-2.6 6.7-4 7.6-1.5.9-14.5 5.7-20.3 4.2z"/><path id="Vector 150" fill="#F4A392" d="M309.6 274.3c-4.6 1.4-2 1.3-1 5.8.1.8.2 1.6.1 2.4.2.5 1.2 2 3 3 1.9 1.1 4.3 1.3 5.4 1.2 6.8-1.3 5.8-13.2 4.4-15.7-1.4-2.5-7.2 1.9-11.9 3.3z"/><path id="Vector 156" fill="#E6836E" d="M307.3 291.5c.9 4.4 6 10 10.7 9 3-.6 2.2-7.8.6-9.6a6.4 6.4 0 01-1.6-4.2c-1 .1-3.4 0-5.3-1.2a7.4 7.4 0 01-3-3c-.3 3-2.1 5.4-1.4 9z"/><rect id="Rectangle 101" width="86.3" height="4.4" x="327.7" y="339.5" fill="#5659A5" rx="2.2" transform="rotate(-.4 327.7 339.5)"/><rect id="Rectangle 102" width="4.4" height="85.3" x="336.1" y="340.9" fill="#5659A5" rx="2.2" transform="rotate(-.4 336.1 341)"/><rect id="Rectangle 103" width="4.4" height="85.3" x="399.7" y="340.4" fill="#5659A5" rx="2.2" transform="rotate(-.4 399.7 340.4)"/><g id="Group 212"><path id="Rectangle 105" fill="#2E3078" d="M343.9 337.7l.1-.1 18.3-4.1c3-.7 4.8 3.1 2.5 5a3 3 0 01-1.9.7l-18.7.2c-1 0-1.2-1.4-.3-1.7z"/><path id="Rectangle 104" fill="#363983" d="M365.8 314.3a5 5 0 014.5-2.8l25.5-.2a5 5 0 014.5 7.3l-8.8 17.7a5 5 0 01-4.5 2.7l-25.5.2a5 5 0 01-4.5-7.2l8.8-17.7z"/><ellipse id="Ellipse 69" cx="381.4" cy="327.7" fill="#6264A5" rx="2.5" ry="3" transform="rotate(11.5 381.4 327.7)"/></g><path id="Vector 269" fill="#F4A392" d="M303.9 326.7c-1.6.5-2.3-10-2.4-15.3-2.7-4.3-10.5-4.8-11-3.9-.5.9.2 24.1 4.5 26.5 4.3 2.4 27-.2 33.9-1.5 5.5-1 9.8-3.6 10.8-5.4-.7-.7-3.8-3.4-6.1-3.3-2.9.1-5.3 6.7-11.2 4a37.9 37.9 0 00-18.5-1z"/></g><g id="Group 225"><path id="Vector 270" fill="#262865" d="M406 278.2h-73c2.5 0 10.5-9 10.5-14s3-11 7.5-11 49.5-.5 55 0 9 5.5 9.5 12-2.5 13-9.5 13z"/><rect id="Rectangle 106_2" width="51" height="2" x="356" y="259" fill="#6466C5" rx="1"/><rect id="Rectangle 107_2" width="41" height="2" x="356" y="265" fill="#6466C5" rx="1"/><rect id="Rectangle 108_2" width="24" height="2" x="356" y="271" fill="#6466C5" rx="1"/></g></g><g id="lamp" opacity=".5"><path id="Vector 205" fill="#6769B3" d="M347.4 134.9c5 3 37 3.7 42.5-.8-1.2-1.8-7.2-5.2-21.2-4.3-17.6 1-21.3 3.1-21.3 5z"/><path id="Vector 203" stroke="url(#paint5_linear)" d="M370.7 68v40.6"/><path id="Vector 204" fill="#363983" d="M347.4 134.9c-2-.7-3.3-4 6.4-12.6 12.2-10.7 16.6-14.6 17.3-14.6l1.1.9c4.5 4 20.6 20.2 18.3 24.8l-.6.7c-5.5 4.5-37.5 3.7-42.5.8z"/><path id="Vector 206" fill="url(#paint6_linear)" fill-opacity=".1" d="M368.6 129.8c14.1-.9 20 2.5 21.3 4.3-.8 28.4-6.4 85.4-22.4 85.9-16.1-.5-19.4-56.8-20.1-85.1 0-2 3.6-4 21.2-5.1z"/><path id="Vector 207" fill="#47499E" d="M353.8 122.3c-9.7 8.6-8.3 12-6.4 12.6 0-1.4 1.8-2.8 9-3.9-6.6.7 7.8-14.7 15.8-22.4l-1.1-1c-.7 0-5.1 4-17.3 14.7z"/></g></g></g><g id="place03" opacity=".7"><mask id="mask2" width="94" height="280" x="9" y="117" maskUnits="userSpaceOnUse"><path id="Rectangle 84_3" fill="#FFF" d="M9.5 152.1c0-9 6-16.8 14.6-19.1L78 118.4c12.6-3.4 25 6.1 25 19.1V377c0 13-12.4 22.5-25 19.1l-54-14.6a19.8 19.8 0 01-14.5-19V152z"/></mask><g mask="url(#mask2)"><path id="Vector 201_2" fill="url(#paint7_linear)" d="M317 270.4L3.8 139.8l14.5-68.4h281.8l17 199z"/><g id="character_3"><g id="Group 210"><path id="Vector 163_2" fill="#E6836E" d="M79 297.5c-1.3.1-3.8-.2-3.1-1.9l.4-1.6c.2-2.8 1.8-7.3 2.8-8.5 1-1.1 0 2.2 0 3.2-.1 1 2.3-1.7 4.7-1.4 2.4.2 3.6.4 2.5 2.5-1.2 2-3.9 3.5-4.4 4.2a10 10 0 00-2.9 3.5z"/><path id="Vector_5" fill="#E6836E" d="M60.4 306c-2.5-.2-.7-8.3-4.2-12.1-3.5-3.8-7.8 9.9-7.8 9.9s3.8 13 9.8 14c6 1 19.8-18.4 20.6-20.5 1-2.1-1.9-4.7-3.3-3.3-1.4 1.4-12.6 12.3-15.1 12z"/><path id="Vector 233" fill="#292C6B" d="M39 373.7c-.5 3-28 34.5-34 40 0 2.5 4 4 5.5 3.5s45.5-25.5 48-36-1-36-4.5-46.5-31.5-3.5-31.5 4 17 32 16.5 35z"/><path id="Vector 232" fill="#2F3176" d="M16.5 395.7c0 9.5-2.5 25 5.5 25 4.5 0 8-25 10.5-38s13.5-36.5 13.5-49-29.5-6.5-29.5 0 5.5 30.5 5.5 34.5-5.5 18-5.5 27.5z"/><path id="Vector 234" fill="#2F3176" d="M59 302.6c-3.8-.1-8-.6-8 2.4s2.8 18.5 2.3 31.9c-3.4 2.4-25.9-2-36.7-4.5l1-12.5c-2.2 1.5-2.8 1.8-6.4-3-4.5-6-1.7-20 4.5-31 6.5-11.5 17.5-12 31-6.5 10.8 4.4 12.4 22.2 12.4 23.2z"/><path id="Vector 242" fill="#F4A392" d="M43.3 271.2a12.8 12.8 0 01-8.8 3.3c-5 0-7.8-12.2-5.8-16 2-4 13.6-2.3 14.6-1.2 1 1.1 3.3 10.7 0 14z"/><path id="Vector 245" fill="#F4A392" d="M47.9 267c.5 2-1 1.5-2 2.4l-4 3.8s-1.5 2.3-1.4 4.8c0 2.5 0 7.5.5 8l-11-9.5v-18c0-3.9 16-2.4 16-1s1.4 7.6 1.9 9.5z"/><path id="Vector 235" fill="#F4A392" d="M56.5 317.7c0-5-5-1.5-7.5-1.5-10.5 1-27 1.5-29-.5s2.5-12 0-10.5c-2 1.2-8 .5-11-1-.5 4-.6 14 3 17.5 4.5 4.5 23-.5 30.5 0s14 1 14-4z"/><path id="Vector 244" fill="#121334" d="M46 276.8c-5.3 1.5-8.7-5-9.7-5v-5c0-2-1.5-4-3.4-4-2 0 1 5.5 1 6.5 0 .8-2.4 2.7-3.7 2.5-1.2-.2-5.6-12.9-3.7-18.9 2.5-7.4 11.3-2.4 15.2-2.4 3.1 0 2.3-3 1.5-4.5 2.2.3 6.8 2.2 6.8 7 0 4.7-8.5 7.2-12.7 7.9 0 1.3 0 4.4.5 6 .4 1.5 6.3 2 9.3 2 .5 2 1 6.7-1 7.9z"/></g><g id="Group 222"><path id="Vector 270_2" fill="#262865" d="M93.3 272H48c1.5 0 8-6.7 8-9.9s1.8-8 4.5-8 29.5-.3 32.8 0c3.3.4 5.4 4.5 5.7 8.7.3 4-1.5 9.2-5.7 9.2z"/><rect id="Rectangle 106_3" width="30" height="2" x="65" y="257" fill="#6466C5" rx="1"/><rect id="Rectangle 107_3" width="25" height="2" x="65" y="262" fill="#6466C5" rx="1"/><rect id="Rectangle 108_3" width="14" height="2" x="65" y="267" fill="#6466C5" rx="1"/></g></g></g></g><g id="place04" opacity=".8"><mask id="mask3" width="127" height="161" x="116" y="258" maskUnits="userSpaceOnUse"><path id="Rectangle 84_4" fill="#FFF" d="M116.8 278c0-11 8.9-19.8 19.8-19.8h85.9c10.9 0 19.8 8.8 19.8 19.8v120.6c0 12.3-11.1 21.6-23.2 19.5l-85.8-14.8a19.8 19.8 0 01-16.5-19.5V278z"/></mask><g mask="url(#mask3)"><path id="Vector 201_3" fill="url(#paint8_linear)" d="M420.5 386.5L107.3 256l14.5-68.3h281.8l17 199z"/><g id="character_4"><g id="Group 173"><path id="Vector 188" fill="#292C6B" d="M158.5 332.7c1.8 5.4 12 23.2 17 31.5l2.8-13c.3-1.2 3.9-14.4 9.6-15.8 1.8-.4-3.7 11.4-2 19.8.2.7 1.3 11.8 2.1 17-1.3 2.5-6 8-11 8.3-6 .4-20-25.2-24.2-45.2 1.3-1 4.4-2.8 5.7-2.6z"/><path id="Vector 186" fill="#2F3176" d="M181 431.3h40.6v-56.5l1.8-18.7c20 8.4-3.7-19.1-9.4-23.4-7-5.3-17.6-4.1-25.3.9-7.6 5-9 25-9 25 0 11.8 0 65 1.2 72.7z"/><path id="Vector 185" fill="#F4A392" d="M144.3 327.2c1.7 4.6 9.1 7.1 8.9 8.4 1.8.4 5.8 1.1 5.6 0-1.1-7-2-10.7-3.5-12.4-1.5-1.7-1.4 3.3-1.8 3.2-.4 0-1.8-4.2-5-5.2-3.3-1-5.7 2-4.2 6z"/><path id="Vector 165_2" fill="#F4A392" d="M208.6 406.3l6.9-5.6-2-4.9c-.5.3-1.9.7-3.6.5-2.2-.2-7.5.6-9.8 2-2.4 1.4-.2 2.2.4 1.7.6-.5 4.2-1.5 4.4-.7.2.8-6 3-6.3 8.1-.3 5.2 7.9.6 10-1z"/><path id="Vector_6" fill="#383B85" d="M230.2 382c1.4-1-6.7-12-14.2-22-7.5-10-2.3-15-2.3-15 2.7-1.9 10.7.7 15 5.2 4.5 4.5 17.2 27.8 13 36.1-4 8.4-25.7 16-27.2 16.7-1.4.7-6.2-6.4-5.2-8.2 1-1.9 20.2-12.2 20.9-12.7z"/><path id="Vector 190" fill="#21245B" d="M222.3 368.5a55.5 55.5 0 01-9-12.8 70 70 0 008.2 18l.8-5.2z"/><path id="Vector 74_2" fill="#F4A392" fill-rule="evenodd" d="M206.7 325.3a17.2 17.2 0 01-14.8 2.2c-3.6-1.2-2.5-9.9.2-17.9.8-2.2 1.1-4.1 1.2-5.7l7.3-.8 13.4 7.2c-.4 2.4-1.5 8-2.6 10.8-.8 2.7-1.8 4.3-4.7 4.2z" clip-rule="evenodd"/><path id="Vector 270_3" fill="#262865" d="M138.4 311H189c-1.7 0-9-6.7-9-9.9s-2-8-5-8-33-.3-36.6 0c-3.7.4-6 4.5-6.4 8.7-.3 4 1.7 9.2 6.4 9.2z"/><rect id="Rectangle 106_4" width="30" height="2" fill="#6466C5" rx="1" transform="matrix(-1 0 0 1 172 296)"/><rect id="Rectangle 107_4" width="25" height="2" fill="#6466C5" rx="1" transform="matrix(-1 0 0 1 172 301)"/><rect id="Rectangle 108_4" width="14" height="2" fill="#6466C5" rx="1" transform="matrix(-1 0 0 1 172 306)"/><path id="Vector 158" fill="#121334" d="M211.5 303.3c-7.9-4.4-16.5-2-18.6.5 3.5 4.6 10.2 15 9 19-1.4 3.9-7 4.9-9.7 4.7 1.2 3-4.5 6.2-5.8 8.2-1.3 2-2.5 9.9 3 13.3 18.8 11.7 22.8-20.7 43.4 7.9 8.9-9.1-26.4-30.5-22.6-28.2 4 2.3 9.6-6 9.6-11.7 0-5.7-.4-9.3-8.3-13.7z"/></g></g></g></g><g id="place05" opacity=".8"><mask id="mask4" width="127" height="154" x="116" y="88" maskUnits="userSpaceOnUse"><path id="Rectangle 84_5" fill="#FFF" d="M116.8 125.2c0-9.4 6.7-17.6 16-19.4l85.8-17.2c12.2-2.5 23.7 6.9 23.7 19.4v113.3c0 11-8.9 19.8-19.8 19.8h-85.9c-11 0-19.8-8.9-19.8-19.8v-96.1z"/></mask><g mask="url(#mask4)"><path id="Vector 201_4" fill="url(#paint9_linear)" d="M423.7 242.9L110.6 112.3 125 43.9h281.8l17 199z"/><g id="character_5"><g id="Group 136"><path id="Vector 105" fill="#E6836E" d="M165.8 174c-1.8 1-7 3.2-9.5 4l-2.5 7.3c.3 0 1.6-.4 5-1.8 3.5-1.4 9-6.9 11.5-9.1 3.3-.2 3-1.5 3.6-1.9.7-.4.6.8 1.8.8 1 0 .3-.2 0-1 .5.8 1.8 1.3 2.9.8.4-.3.4-.5.3-.7.8.5 1.6.7 1.7-.1.2-1.4 1.4-1 .3-1.4.4-.2-3.3-.5-3.4-.7-.9-1.8-4.5.2-5.7 1-1.1.7-3.8 1.4-6 2.8z"/><g id="Group 130"><path id="Vector 73" fill="#E6836E" d="M148 158c.6-.4-.2-4.6-.2-4.6l-8-2.3c.4 2.2 1 6.6.8 7.3 0 0 6.9.1 7.4-.3z"/><path id="Vector 76" fill="#F4A392" fill-rule="evenodd" d="M139.4 151c.9 1.5 3.8 4.5 8.3 4.7 1.1 0 2-1.2 2.6-3-1.2 0-2.3-.5-2.6-.8 1 .5 2.4.2 2.9 0l.1-.6c.2-.6 1-.7 1.5-.7-.6-.8-.8-3-.8-4.1l.1-1.6c.1-4.3 1.9-6.2 2.7-6.6l-15.8 2.1a49 49 0 00-.9 7c0 1.9.6 2.9 1.9 3.6z" clip-rule="evenodd"/><path id="Vector 75_2" fill="#121334" d="M152.4 142.7c0 1.2-.5 2.4-.8 2.7.3-3-.7-3.8-1-3.9-1.5 2-5.3 1.9-7 1.6.2 3-1.5 4.1-2.1 4.4-.5.2-.8 1.2-.8 1.7-.1-.7-.6-2-1.8-2.1-1-.1-1.3.7-1.3 1.2-4.2-4.5-2-8.1-.4-9.3.2-5.5 7.9-5.8 11.4-3.3a7 7 0 007 .7c.5 2-1.1 3.5-2 4 .5-.3 1.3-.2 1.7-.1-.2 1.3-1.9 2-3 2.4z"/></g><g id="Vector 116" fill="#F4A392"><path d="M207.7 236l-2.2-5.2-1-2.2 5.2-2 3.1 7.3-5 2zM181.4 210l1.3-7.5 5.4-.4-1.4 9.2-5.3-1.3z"/></g><path id="Vector 104" fill="#262865" d="M185.7 199.9c5.1 9 15.5 27.3 16.2 28.9.6 1.5.8 1.6 1.5 2.4 1 1 7.6-2 7.7-2.4 0-.4-13.7-36.3-14.8-39-1.2-2.8-4.4-2.6-5.1-2.6-.6 0-12.8-3-18.9-4.5-2 4.9-5.9 15.2-5.9 17.2s6.8 4 10.1 4.9c1.6-.4 4.8-1.1 5.8-1.6s2.7-2.4 3.4-3.3z"/><path id="Vector 103" fill="#2F3176" d="M177.6 173.5c-2.2 1.2-11.6 5.5-16 7.5-8.2 8.8 6.8 17.2 9.3 15.9 2.5-1.4 8.8-6 9.1-5 .4 1.2 1 10.3 1 11.1 0 .9 7.7 2.7 7.8 2.3 0-.4 2.5-16.3 2.9-20.6.4-4.3.3-12-.4-14.6-.7-2.5-11 1.8-13.7 3.4z"/><path id="Vector 108" fill="#4C4E9B" d="M138.3 155.1l12 2.7-1.1 1.7c1.3.1 5.6 5 7.6 7.8 2 2.7 7.2 9.8 7.5 12.7.3 2.3-.7 5.7-1.2 7a800 800 0 00-22 2.2L139 162c0-.9 1.2-1.2 1.8-1.2l-2.4-5.8z"/><path id="Vector 120" fill="#F4A392" d="M158.2 173.4c-1 .3-6.7-2.9-11-5.5 2 3.6 6 10.2 6.9 11.4 1 1 3.4 1.7 4.5 1.4 4.8-1.5 11.7-11 14.7-16.8-.5.2-1.8-1-2.4-1.5-3.4.5-8 5.8-10.6 8.8-1 1.2-1.8 2.1-2.1 2.2z"/><path id="Vector 121" fill="#F4A392" d="M171 157.7c.3 1.3-.5 3.8-.4 5.1 0 1.3 1.8 1.8 2.3 1.5.5-.3 5.5-6 5.5-6.5-.1-.3-1 .3-1.5.6.8-.6 1.7-2 1.6-2.2 0-.2-.8.2-1.1.5.3-.5.7-1.5.1-1.3-.6.3-1.8 2-2.3 2.7l.9-2.4c0-.6-.5-.3-1.2 1s-3.2 3.7-3 1.8c.2-1.9-.6-2.2-.7-2.5-.2-.2-.5.2-.2 1.7z"/><path id="Vector 101" fill="#171843" d="M169.5 241.3h2.3l-5.6-40.2-7.2 1 10.5 39.2z"/><path id="Vector 102" fill="#171843" d="M132.8 241.3h-2.3l5.6-40.1 7.2 1-10.5 39.1z"/><path id="Vector 106" fill="#4C4E9B" d="M143.5 160c2.3 1 9.7 7.3 13.1 10.4l-1.4 4.8c-.9 2.8-2 3.7-2.6 3.8a81.4 81.4 0 01-8.9-5.3c-1.5-1.3-5.8-5.1-7-9.3-1.2-4.3 0-4.1.8-4.5.7-.4 3.2-.9 6 .2z"/><path id="Vector 111" fill="#3A3C8B" d="M185.2 149.4l-1 21.5 6.8-1.8.9-.3c.5-.2 1-.5 1-.9l1-20.1c0-.6 0-2.1-1-2.1l-1 .2-5.3 1.9c-1.2.4-1.3.7-1.4 1.6z"/><path id="Vector 112" fill="#23255F" fill-rule="evenodd" d="M193 168c0 .3-.6.6-1.1.8-.4 0-1.2 0-1.1-.9l1.1-22 1-.2c1 0 1 1.5 1 2.1l-.4 9.5-.6 10.6z" clip-rule="evenodd"/><path id="Vector 100" fill="#171843" d="M131.8 154c6.8 3.3 14.2 22.9 17.1 32.3 4-1.8 20.3-2 22.1.8 1.8 2.7 4.5 8.4 0 13.4s-31.6 7-39.2 2.1c-7-4.4-8.5-52.7 0-48.6z"/><path id="Vector 110" fill="#23255F" d="M190.3 170.8c2.1-.4 1.7-1.7 1-1.9-.7-.2-18.5 3-19.9 3.3-1.1.2-1.6 1.9-1.7 2.7l20.6-4.1z"/><path id="Vector 117" fill="#383B85" d="M195.4 221.5c-.1-3.1-6-8.4-8.8-10.6-2.5.4-4-1.7-4.7-2.5-.5-.7-3.3 3.8-3.3 4.3 0 .6 10.2 8.8 11.5 9.5 1.3.7 5.3 3 5.3-.7z"/><path id="Vector 118" fill="#383B85" d="M206.6 233.7c1.4.8 4.7-.2 6.1-.8 2.5.3 8 1.2 10.1 2.9 2.8 2.1 5.2 4 .8 4.6-4.4.7-17-1-18-1.8-1.1-.7-.7-6 1-5z"/><ellipse id="Ellipse 52" fill="#fff" rx=".2" ry=".5" transform="matrix(-1 0 0 1 188.4 148.4)"/><path id="Vector 119" fill="url(#paint10_linear)" fill-opacity=".2" d="M150.6 132.2l37.8 15.7v1l-46 20.5c-2.9-7.5-11.3-21.9-10.8-27.5.5-7 6-13.7 19-9.7z"/><path id="Vector 109" fill="#25276A" d="M157.5 180.8c-.6 0-3.9-1-5.4-1.6 2.3-1.7 3.7-7.1 4.1-9.6l1.7 1 2.2.4c.2.4.5 1.7 0 4.5-.8 3.4-2 5.1-2.6 5.3z"/></g><g id="Group 229"><path id="Vector 270_4" fill="#262865" d="M214.8 143H160c1.9 0 7.9-6.8 7.9-10.5 0-3.8 2.2-8.3 5.6-8.3 3.4 0 37.2-.4 41.3 0 4.1.3 6.8 4.1 7.2 9 .3 4.9-2 9.8-7.2 9.8z"/><rect id="Rectangle 106_5" width="39" height="1" x="177" y="129" fill="#6466C5" rx=".5"/><rect id="Rectangle 107_5" width="31" height="2" x="177" y="133" fill="#6466C5" rx="1"/><rect id="Rectangle 108_5" width="18" height="1" x="177" y="138" fill="#6466C5" rx=".5"/></g></g></g></g><g id="technologies"><g clip-path="url(#cliphero31)"><path id="Ellipse 38" fill="#262865" d="M567 94.6c-.5 14.5 6.2 15.7 13.9 15.3 7.7-.3 17.3-4 17.1-15.3-.2-11.4-7.6-14.7-13.4-14.6-5.7 0-17 0-17.6 14.6z"/><path id="Vector_7" fill="#9B9CEA" fill-rule="evenodd" d="M583 85c-5.5 0-10 4.6-10 10.3 0 4.5 2.9 8.3 6.8 9.7.5 0 .7-.2.7-.5v-2c-2.8.7-3.4-1.1-3.4-1.1-.4-1.2-1-1.5-1-1.5-1-.7 0-.7 0-.7 1 .1 1.5 1.1 1.5 1.1 1 1.6 2.4 1.1 3 .9 0-.7.3-1.2.6-1.4-2.2-.3-4.6-1.2-4.6-5 0-1.2.4-2.1 1-2.8 0-.3-.4-1.3.1-2.7 0 0 .9-.3 2.8 1a9.4 9.4 0 015 0c2-1.3 2.8-1 2.8-1 .5 1.4.2 2.4 0 2.7a4 4 0 011 2.7c0 4-2.3 4.8-4.5 5 .4.4.7 1 .7 2v2.8c0 .3.2.6.7.5 4-1.4 6.8-5.2 6.8-9.7 0-5.7-4.5-10.3-10-10.3z" clip-rule="evenodd"/></g><g clip-path="url(#cliphero30)"><path id="Ellipse 38_2" fill="#262865" d="M509 76.6c-.5 14.5 6.2 15.7 13.9 15.3 7.7-.3 17.3-4 17.1-15.3-.2-11.4-7.6-14.7-13.4-14.6-5.7 0-17 0-17.6 14.6z"/><g id="Group 238"><path id="Vector_8" fill="url(#paint11_linear)" d="M519.8 73.8c.9 2.5 1.2 7 3.6 7h.5c-2.2-.6-2.4-5-3.7-7.3l-.4.3z"/><path id="Vector_9" fill="url(#paint12_linear)" d="M520.2 73.5c1.3 2.3 1.5 6.7 3.7 7.2l.5-.1c-2-1-2.5-5.2-4-7.3l-.2.2z"/><path id="Vector_10" fill="#14559A" d="M522 72.2a3 3 0 00-.5 0c-.5.1-1 .3-1.5.7.2 0 .3.2.4.4l1.5-.9.6-.2h-.4z"/><path id="Vector_11" fill="url(#paint13_linear)" d="M526 79.7l.5-.5c-.8-2.5-1.1-7-3.5-7h-.5c2.2.6 2.5 5.3 3.4 7.5z"/><path id="Vector_12" fill="#3092C4" d="M522.5 72.2h-.4.9-.5z"/><path id="Vector_13" fill="#1969BC" d="M525.9 80.2l-.3-.3a5 5 0 01-1.2.7 1.9 1.9 0 00.8.2c.5 0 .8 0 1.1-.2a2 2 0 01-.4-.4z"/><path id="Vector_14" fill="url(#paint14_linear)" d="M522 72.4c1.9 1 2 5.7 3.6 7.5l.3-.2c-1-2.2-1.2-7-3.4-7.5l-.6.2z"/><path id="Vector_15" fill="url(#paint15_linear)" d="M520.4 73.3c1.5 2 2 6.3 4 7.3a5 5 0 001.2-.7c-1.5-1.8-1.7-6.5-3.7-7.5-.5.2-1 .5-1.5 1z"/><path id="Vector_16" fill="url(#paint16_linear)" d="M518.9 73.8a22 22 0 00-.8 2.1 16 16 0 011.7-2l-.2-.7-.7.6z"/><path id="Vector_17" fill="#2B74B1" d="M519.8 73l-.2.2.2.6c.2 0 .3-.2.4-.3l-.4-.5z"/><path id="Vector_18" fill="#125A9E" d="M520 72.9l-.2.1.4.5.2-.2c0-.2-.2-.3-.4-.4z"/><path id="Vector_19" fill="url(#paint17_linear)" d="M533.4 72c-1.1 4.3-3.4 7.7-5.4 8.6H527.6v.1h-.1.2c1.9 0 3.7-3.2 6.8-8.7h-1.2z"/><path id="Vector_20" fill="url(#paint18_linear)" d="M517.7 72.4h.1v-.1h.5v-.1h-.1c-2 0-5 3.8-6.2 8.8h.2l1.2-2c.9-3.6 2.7-6 4.3-6.6"/><path id="Vector_21" fill="#0D82CA" d="M518.9 73.8l.7-.6-.2-.4a4 4 0 00-.5 1zm.2-1.4l.3.4h.1l-.5-.4z"/><path id="Vector_22" fill="url(#paint19_linear)" d="M513.4 79c1.9-3.7 2.7-6 4.3-6.6-1.6.6-3.4 3-4.3 6.5z"/><path id="Vector_23" fill="#127BCA" d="M519.5 72.7v.5c.2 0 .2-.1.3-.2l-.3-.3z"/><path id="Vector_24" fill="url(#paint20_linear)" d="M514.2 81h-.1c1.9 0 2.8-1 3.2-2.4l.8-2.7a38 38 0 00-2.4 4c-.4.7-1 1-1.5 1"/><path id="Vector_25" fill="url(#paint21_linear)" d="M514.2 81a2 2 0 001.5-1.1c.8-1.5 1.6-2.9 2.4-4l.8-2.1c-1.6 1.5-3.2 4-4.7 7.2"/><path id="Vector_26" fill="#05A1E6" d="M513.4 79l-1.2 2h.8c0-.7.2-1.4.4-2"/><path id="Vector_27" fill="url(#paint22_linear)" d="M518.3 72.2H518v.1h-.2c-1.7.7-2.5 3-4.4 6.6L513 81H514.3c1.5-3.2 3.1-5.7 4.7-7.2l.5-1-.3-.4h-.2v-.1h-.2-.2l-.1-.1"/><path id="Vector_28" fill="url(#paint23_linear)" d="M529 74.4l-.8 2.9c1-1.4 2-3.1 2.9-5.1-1.1.3-1.7 1.1-2 2.2z"/><path id="Vector_29" fill="url(#paint24_linear)" d="M528.2 80.5h-.2c2-.8 4.3-4.2 5.4-8.5h-.2c-2.6 4.5-3.4 7.6-5 8.5z"/><path id="Vector_30" fill="#079AE1" d="M527 80.1l1.2-2.8c-.6.7-1.1 1.4-1.7 1.9l.4.9"/><path id="Vector_31" fill="#1969BC" d="M527 80.1a1.7 1.7 0 01-.7.5l.6.2h.7l-.7-.7"/><path id="Vector_32" fill="#1E5CB3" d="M523.4 80.8a2.9 2.9 0 001-.2 1.9 1.9 0 00.8.2h-1.9zm1.8 0c.5 0 .8 0 1.1-.2l.6.2h.2-1.9z"/><path id="Vector_33" fill="#1D60B5" d="M527.1 80.8h.7-.7z"/><path id="Vector_34" fill="#175FAB" d="M526.5 79.2a8.7 8.7 0 01-.9.7l.3.3.4.4h.2l.4-.5-.4-1"/><path id="Vector_35" fill="url(#paint25_linear)" d="M532.5 72H531v.2c-1 2-2 3.7-3 5a9.3 9.3 0 01-1.2 2.9c.2.3.4.5.7.6H528v-.1h.1l.2-.1c1.6-1 2.4-4 5-8.5h-.7z"/><path id="Vector_36" fill="#7DCBEC" d="M518.4 72.2H518.8l.1.1h.2l.5.4.2-.1a2 2 0 00-1.3-.4"/><path id="Vector_37" fill="#5EC5ED" d="M519.5 72.7l.3.3.2-.1c0-.2-.2-.2-.3-.3l-.2.1z"/><g id="Group"><path id="Vector_38" fill="url(#paint26_linear)" d="M518.4 72.2h.1c.4 0 .8.1 1.2.4.3-.3.7-.4 1.3-.4h-2.8.1z"/></g><g id="Group_2"><path id="Vector_39" fill="url(#paint27_linear)" d="M521 72.2c-.6 0-1 .1-1.3.4l.3.3c.5-.3 1-.6 1.5-.6l.5-.1h-1z"/></g><path id="Vector_40" fill="url(#paint28_linear)" d="M528.2 77.3l.9-3c.3-1 .9-1.8 2-2.1V72c-1.7.1-2.6 1-3 2.4-.7 2.3-1.1 3.8-1.6 4.8.6-.5 1.1-1.2 1.7-2z"/></g></g><g clip-path="url(#cliphero29)"><path id="Ellipse 38_3" fill="#262865" d="M473 41.6c-.5 14.5 6.2 15.7 13.9 15.3 7.7-.3 17.3-4 17.1-15.3-.2-11.4-7.6-14.7-13.4-14.6-5.7 0-17 0-17.6 14.6z"/><path id="Vector_41" fill="#F34F29" d="M490 31.4c-.6-.5-1.5-.5-2 0l-2 2 2.5 2.5a1.7 1.7 0 012.1 2.2l2.5 2.4a1.7 1.7 0 11-.7 2.8c-.5-.5-.6-1.2-.4-1.8l-2.3-2.3v6l.5.3c.6.7.7 1.7 0 2.4-.6.6-1.7.6-2.4 0-.6-.7-.6-1.7 0-2.4.2-.2.2-.3.6-.4v-6c-.4 0-.4-.2-.5-.4-.5-.5-.7-1.2-.4-1.8l-2.5-2.5-6.6 6.6c-.5.5-.5 1.4 0 2l9.6 9.6c.6.5 1.5.5 2 0l9.6-9.6c.5-.5.5-1.4 0-2l-9.6-9.6z"/></g><g clip-path="url(#cliphero0)"><path id="Ellipse 37" fill="#262865" d="M540 124c.7 16.8-7 18.3-16 17.8-9-.4-20.3-4.7-20-17.9.3-13.1 8.8-17 15.6-16.9 6.7 0 19.9 0 20.5 17z"/><path id="Vector_42" fill="#8CFDFF" d="M522 125.6a1.6 1.6 0 100-3.2 1.6 1.6 0 000 3.2z"/><path id="Vector_43" fill="#8CFDFF" d="M528.2 121.3l-1-.3.2-1c.3-2 0-3.3-1-3.8l-.8-.2c-1 0-2.3.7-3.6 2-1.3-1.3-2.6-2-3.6-2-.3 0-.6 0-.9.2-.9.6-1.2 1.9-1 3.8l.3 1c-.4 0-.7.2-1 .3-1.8.7-2.8 1.6-2.8 2.7 0 1 1 2 2.8 2.7l1 .3-.2 1c-.3 2 0 3.3 1 3.8l.8.2c1 0 2.3-.7 3.6-2 1.3 1.3 2.6 2 3.6 2 .3 0 .6 0 .9-.2.9-.6 1.2-1.9 1-3.8l-.3-1c.4 0 .7-.2 1-.3 1.8-.7 2.8-1.6 2.8-2.7 0-1-1-2-2.8-2.7zm-2.1-4.4c.6.4.8 1.4.5 3 0 .3 0 .6-.2.9l-2.3-.4-1.5-1.8c1-1 2.1-1.8 3-1.8l.5.1zm-1.6 8.5l-.9 1.4a19.7 19.7 0 01-3.2 0 18.1 18.1 0 01-1.6-2.8 23 23 0 011.6-2.8 19.7 19.7 0 013.2 0 17.8 17.8 0 011.6 2.8l-.7 1.4zm1.2-.4l.5 1.4-1.5.3.5-.9.5-.8zm-3.7 3.8a16 16 0 01-1-1.2h2l-1 1.2zm-2.7-2.1l-1.5-.3.5-1.5.5 1 .5.8zm-1-3.7l-.5-1.4 1.5-.3-.5.9-.5.8zm3.7-3.8l1 1.2h-2l1-1.2zm3.2 3l-.5-.9 1.5.3-.5 1.5-.5-1zm-7.8-2.4c-.3-1.5 0-2.5.5-2.9h.5c.9 0 2 .6 3 1.7l-1.5 1.8-2.3.4-.2-1zm-3.6 4.2c0-.7.9-1.4 2.3-2l1-.2c.1.7.4 1.5.8 2.2a18 18 0 00-.9 2.2c-2-.5-3.2-1.4-3.2-2.2zm4.1 7c-.6-.3-.8-1.3-.5-2.8 0-.3 0-.7.2-1l2.3.4 1.5 1.8c-1 1-2.1 1.8-3 1.8a1 1 0 01-.5-.1zm8.7-2.8c.3 1.5 0 2.5-.5 2.9a1 1 0 01-.5 0c-.9 0-2-.6-3-1.7l1.5-1.8 2.3-.4.2 1zm1.3-2.3l-.9.3c-.2-.7-.5-1.5-.9-2.2l.9-2.2c2 .5 3.2 1.4 3.2 2.2 0 .7-.9 1.4-2.3 2z"/></g><g clip-path="url(#cliphero1)"><path id="Ellipse 37_2" fill="#262865" d="M477.8 143.2c.6 17.2-7.4 18.7-16.5 18.3-9.1-.5-20.6-4.9-20.3-18.3.3-13.4 9-17.3 15.9-17.2 6.8 0 20.2 0 20.9 17.2z"/><g id="Java"><g id="Group 219"><path id="Vector_44" fill="#7579FF" d="M455.4 149.5s-1 .6.8.8c2.1.2 3.2.2 5.6-.3l1.5.8c-5.3 2.3-12-.2-7.9-1.3zm-.6-3s-1.2.8.6 1c2.3.3 4.1.3 7.3-.3 0 0 .4.4 1.1.7-6.5 1.9-13.7.1-9-1.4z"/><path id="Vector_45" fill="#CE368A" d="M460.3 141.4c1.3 1.5-.4 2.9-.4 2.9s3.4-1.7 1.8-4c-1.4-2-2.5-3 3.5-6.4 0 0-9.4 2.4-5 7.5z"/><path id="Vector_46" fill="#7579FF" d="M467.3 151.7s.8.6-.8 1.1c-3.1 1-12.9 1.2-15.6 0-1-.4.9-1 1.5-1l1-.2c-1.2-.8-7.1 1.5-3.1 2.1 10.9 1.8 19.9-.7 17-2zm-11.4-8.3s-5 1.2-1.7 1.6c1.3.2 4 .1 6.5 0l4.1-.6-1.2.6c-5 1.4-14.8.7-12-.6 2.4-1.2 4.3-1 4.3-1zm9 5c5-2.7 2.7-5.3 1-5l-.6.2.5-.3c3.2-1.2 5.8 3.4-1 5.2v-.1z"/><path id="Vector_47" fill="#CE368A" d="M461.7 128.3s2.9 2.9-2.7 7.3c-4.4 3.5-1 5.4 0 7.7-2.6-2.3-4.4-4.4-3.2-6.3 1.9-2.8 7-4.1 6-8.7z"/><path id="Vector_48" fill="#7579FF" d="M456.4 155.6c5 .3 12.5-.2 12.7-2.5 0 0-.4.8-4 1.5-4.3.8-9.5.7-12.5.2 0 0 .6.6 3.8.8z"/></g></g></g><g clip-path="url(#cliphero2)"><path id="Ellipse 37_3" fill="#262865" d="M160.4 68c.4 10.9-4.7 11.8-10.5 11.5-5.8-.3-13-3-12.9-11.6.2-8.5 5.7-11 10-10.9 4.4 0 13 0 13.4 11z"/><path id="path55" fill="#5FB832" d="M153.7 71c-1.7 2.4-5.4 1.6-7.8 1.7l-.8.1.4-.1c1.6-.6 2.4-.7 3.4-1.2 2-1 3.8-3.1 4.2-5.3-.7 2-3 4-5 4.6-1.3.6-3.8 1-3.8 1-1.7-.8-1.8-4.5 1.3-5.6 1.3-.6 2.6-.3 4-.6a6.3 6.3 0 004-3c.9 2.4 1.9 6.1.1 8.5zm0-9.2c-.2.5-.4 1-.7 1.3a7 7 0 00-12 4.9 7 7 0 002.2 5.1l.2.2a.6.6 0 11.8-1 .6.6 0 01-.8 1 7 7 0 0011.6-4.8c.2-1.8-.4-4-1.3-6.7z"/></g><g clip-path="url(#cliphero3)"><path id="Ellipse 37_4" fill="#262865" d="M126.4 98c.4 10.9-4.7 11.8-10.5 11.5-5.8-.3-13-3-12.9-11.6.2-8.5 5.7-11 10-10.9 4.4 0 13 0 13.4 11z"/><path id="Vector_49" fill="#D6D7EA" d="M119.3 94.6c-.4 0-.6-.2-.6-.5l.1-.4.1-.2c0-.2-.3-.2-.4-.2-1.2 0-1.5 1.6-1.8 3l-.1.6c.7.1 1.2 0 1.4-.2.4-.2 0-.5 0-.7 0-.3.3-.5.5-.5.3 0 .5.3.5.6 0 .5-.7 1.2-2 1.2h-.5l-.3 1.4c-.2 1-.5 2.5-1.6 3.8-1 1.1-1.9 1.3-2.3 1.3-.8 0-1.3-.4-1.3-1 0-.5.4-.8.8-.8s.7.3.7.6-.2.4-.3.5l-.1.2s0 .2.2.2c.3 0 .6-.2.7-.3.8-.7 1-1.8 1.5-3.8v-.5l.6-2.2c-.6-.4-.9-.9-1.6-1-.5-.2-.8-.1-1 .2-.3.3-.2.7 0 1l.4.4c.5.6.8 1 .7 1.6-.2 1-1.3 1.7-2.7 1.3-1.1-.4-1.3-1.2-1.2-1.6.1-.4.4-.5.7-.4.4.1.5.5.4.8v.2l-.2.2c0 .3.3.4.5.5.5.2 1-.1 1.2-.5 0-.4-.2-.7-.3-.8l-.5-.5c-.2-.3-.7-1-.4-1.7 0-.3.2-.7.5-.9a2 2 0 012-.3c.7.2 1.1.8 1.6 1.2a7 7 0 011.3-2.3c.5-.7 1.2-1.1 2-1.1s1.4.3 1.5.9c0 .2-.2.7-.7.7z"/></g><g clip-path="url(#cliphero4)"><path id="Ellipse 37_5" fill="#262865" d="M227.8 89.1c.4 11.2-4.8 12.1-10.7 11.8-5.9-.3-13.3-3-13.1-11.8.2-8.6 5.8-11.2 10.3-11.1 4.4 0 13 0 13.5 11.1z"/><g id="php" fill="#12C8B1"><path d="M210.5 89.9c.3 0 .6-.1.8-.3.2-.2.2-.4.2-.7v-.4l-.2-.3-.4-.2H209.7v1.9h.8zm0-2.9l1 .1.7.4.4.6.2.8-.2.8c0 .2-.2.4-.4.6a2 2 0 01-.7.4l-1 .1h-.8v2h-1.2V87h2zM218.5 87v5.8h-1.2v-2.5h-2.6v2.5h-1.2V87h1.2v2.5h2.6V87h1.2zM221.7 89.9c.3 0 .6-.1.8-.3.2-.2.2-.4.2-.7v-.4l-.2-.3-.4-.2H221v1.9h.8zm0-2.9l1 .1.7.4.4.6.2.8c0 .3 0 .5-.2.8 0 .2-.2.4-.4.6a2 2 0 01-.7.4l-1 .1h-.8v2h-1.2V87h2z"/></g></g><g clip-path="url(#cliphero5)"><path id="Ellipse 37_6" fill="#262865" d="M172.8 109.2c.4 11-4.8 12-10.7 11.7-5.9-.3-13.3-3-13.1-11.8.2-8.6 5.8-11.2 10.3-11.1 4.4 0 13 0 13.5 11.2z"/><path id="Vector_50" fill="#9B4F96" d="M167.7 104.4l-5.8-3.3-.4-.1h-.4l-5.8 3.4c-.2.2-.3.5-.3.7v6.7l.1.4 12.9-7.4c0-.2-.2-.3-.3-.4z"/><path id="Vector_51" fill="#68217A" d="M155 112.2l.3.2 5.8 3.4h.8l5.8-3.4c.2 0 .3-.4.3-.6V105v-.4l-13 7.5z"/><path id="Vector_52" fill="#fff" d="M164 109.9a3 3 0 110-2.9l1.6-.9a4.8 4.8 0 100 4.7l-1.5-.9zm1.5-1.2v-.5h-.4v-.6h.6l.1-.7h.6l-.1.7h.4l.2-.7h.6l-.2.7h.3v.6h-.4v.5h.4v.6h-.6l-.1.7h-.6l.1-.7h-.4l-.2.7h-.6l.2-.7h-.3v-.6h.4zm.6 0h.4l.1-.5h-.4l-.1.5z"/></g><g clip-path="url(#cliphero6)"><path id="Ellipse 37_7" fill="#262865" d="M203.8 61.1c.4 11.2-4.8 12.1-10.7 11.8-5.9-.3-13.3-3-13.1-11.8.2-8.6 5.8-11.2 10.3-11.1 4.4 0 13 0 13.5 11.1z"/><path id="Vector_53" fill="#4F6D9B" d="M198.7 56.4l-5.8-3.3-.4-.1h-.4l-5.8 3.4c-.2.2-.3.5-.3.7v6.7l.1.4 12.9-7.4c0-.2-.2-.3-.3-.4z"/><path id="Vector_54" fill="#214A7A" d="M186 64.2l.3.2 5.8 3.4h.8l5.8-3.4c.2 0 .3-.4.3-.6V57v-.4l-13 7.5z"/><path id="Vector_55" fill="#fff" d="M195 61.9a3 3 0 110-2.9l1.6-.9a4.8 4.8 0 100 4.7l-1.5-.9z"/></g><g clip-path="url(#cliphero7)"><path id="Ellipse 37_8" fill="#262865" d="M77.7 222.8c.3 8.7-3.7 9.5-8.4 9.2-4.6-.2-10.4-2.4-10.3-9.2.1-6.9 4.6-8.8 8-8.8 3.5 0 10.4 0 10.7 8.8z"/><g id="UX" fill="#CB4B94"><path d="M66.1 225l.5-.1c.2 0 .3-.2.4-.3l.3-.4V220h1.2v3.5c0 .3 0 .7-.2 1l-.5.7a2 2 0 01-.7.5l-1 .2c-.3 0-.6 0-1-.2a2 2 0 01-1.1-1.2l-.2-1V220H65v4.1l.3.4.3.3h.5zM74.1 226H73l-.2-.1v-.2l-1.3-2.1v.2l-1.2 2h-.1l-.2.1h-1l1.8-3-1.8-2.8h1.3l.1.1 1.2 2.1a1.6 1.6 0 01.1-.2l1-1.8.2-.2H74l-1.7 2.8 1.8 3z"/></g></g><g clip-path="url(#cliphero8)"><path id="Ellipse 37_9" fill="#262865" d="M56.7 185.8c.3 8.7-3.7 9.5-8.4 9.2-4.6-.2-10.4-2.4-10.3-9.2.1-6.9 4.6-8.8 8-8.8 3.5 0 10.4 0 10.7 8.8z"/><path id="Vector_56" fill="#83CD29" d="M55.4 185.7l.1-.1v-.4-.2l-1.5-.8h-.2l-1.5.8v2l1.5.9h.2l.8-.5v-.1l-1.4-1v-.5-.1l.4-.3h.1l.5.3v.5h.2l.8-.5z"/><path id="Vector_57" fill="#83CD29" d="M53.9 185.7l.3.1v.4l-.3.2-.3-.2v-.3l.3-.2z"/><path id="Vector_58" fill="#83CD29" d="M50 186.3l-.5.4-.5-.3v-.6l.5-.4.5.3v.6zm.2-4.3H50v2.3l-.1.1-.4-.2h-.2l-1.5.8v2.1l1.5.8h.2l1.4-.8.1-.2v-4.2-.2l-1-.5z"/><path id="Vector_59" fill="#83CD29" d="M45 184.2h.2l1.4.8.1.2v1.8l-1.5.9H45l-1.5-.9v-1.8-.2l1.5-.8z"/><path id="Vector_60" fill="#83CD29" d="M42.3 185.1v-.1l-1.6-.9h-.1l-1.5.9-.1.1v2.4h.1l1-.5V185.8v-.2l.5-.2a.2.2 0 01.1 0l.4.2.1.2v1.2l1 .5h.1V185z"/></g><g clip-path="url(#cliphero9)"><path id="Ellipse 37_10" fill="#262865" d="M36.6 223.7c.3 8.7-3.7 9.5-8.3 9.3-4.6-.3-10.4-2.5-10.3-9.3.1-6.8 4.6-8.7 8-8.7 3.5 0 10.3 0 10.6 8.7z"/><g id="ui" fill="#12C8B1"><path d="M26.8 226.3h.6l.4-.4.3-.5.1-.7v-4h1.4v4c0 .4 0 .8-.2 1.2a2.5 2.5 0 01-1.5 1.4c-.3.2-.7.2-1.1.2-.5 0-.9 0-1.2-.2A2.6 2.6 0 0124 226l-.2-1.2v-4h1.4v4l.1.7c0 .2.2.4.3.5.1.1.3.3.5.3l.6.1zM32.3 227.4h-1.4v-6.7h1.4v6.7z"/></g></g><g clip-path="url(#cliphero10)"><path id="Ellipse 37_11" fill="#262865" d="M91.7 162.6c.4 10.7-4.5 11.6-10.2 11.3-5.6-.3-12.7-3-12.5-11.3.2-8.2 5.6-10.7 9.8-10.6 4.2 0 12.5 0 13 10.6z"/><g id="Group 236"><g id="Group_3"><g id="Group_4"><g id="Group_5" fill="#fff"><path id="Vector_61" d="M76 155h.7v.7h.7v-.7h.7v2h-.7v-.6h-.7v.7H76V155z"/><path id="Vector_62" d="M79 155.7h-.6v-.7h1.9v.7h-.6v1.4H79v-1.4z"/><path id="Vector_63" d="M80.6 155h.7l.5.7.4-.7h.8v2h-.7v-1l-.5.8-.5-.7v1h-.7V155z"/><path id="Vector_64" d="M83.3 155h.7v1.4h1v.7h-1.7V155z"/></g></g></g><g id="Guides to delete"><g id="Group_6"><path id="Vector_65" fill="#E34E26" d="M76 169.2L75 158h11l-1 11.2-4.5 1.3-4.5-1.3z"/><path id="Vector_66" fill="#EF662A" d="M80.5 159v10.5l3.6-1 .9-9.6h-4.5z"/><path id="Vector_67" fill="#fff" d="M77 160.3l.4 4.2h4.8l-.2 1.7-1.5.5-1.5-.5-.1-1.1h-1.4l.2 2.2 2.8.8 2.8-.8.4-4.2h-5l-.2-1.4h5.3l.1-1.4H77z"/><g id="Group_7" fill="#EBEBEB"><path id="Vector_68" d="M80.5 160.3H77l.4 4.2h3V163h-1.7l-.2-1.4h2v-1.4z"/><path id="Vector_69" d="M80.5 166.7l-1.5-.5-.1-1.1h-1.4l.2 2.2 2.8.8v-1.4z"/></g></g></g></g></g><g clip-path="url(#cliphero11)"><path id="Ellipse 37_12" fill="#262865" d="M60.7 144.6c.4 10.7-4.5 11.6-10.2 11.3-5.6-.3-12.7-3-12.5-11.3.2-8.2 5.6-10.7 9.8-10.6 4.2 0 12.5 0 13 10.6z"/><path id="Vector_70" fill="#A4C439" d="M44.9 143.5c-.5 0-.9.4-.9.9v3.6c0 .5.4.9.9.9s.9-.4.9-.9v-3.6c0-.5-.4-.9-1-.9zm7-3.2l.6-1.1v-.2h-.2l-.6 1.2a4.2 4.2 0 00-3.4 0l-.6-1.1s-.1-.1-.2 0l.6 1.2c-1.2.6-2 1.8-2 3h7.8c0-1.2-.8-2.4-2-3zm-3.7 1.7a.3.3 0 01-.3-.3c0-.2.1-.4.3-.4.2 0 .3.2.3.4 0 .1-.1.3-.3.3zm3.6 0a.3.3 0 01-.3-.3.3.3 0 01.6 0c0 .1-.1.3-.3.3zm-5.7 1.7v5.6c0 .5.4 1 1 1h.6v1.8c0 .5.4.9.8.9.5 0 1-.4 1-.9v-1.9h1v2c0 .4.5.8 1 .8.4 0 .8-.4.8-.9v-1.9h.7c.5 0 1-.4 1-.9v-5.6h-8zm9.9.7c0-.5-.4-.9-.9-.9s-.9.4-.9.9v3.6c0 .5.4.9 1 .9.4 0 .8-.4.8-.9v-3.6z"/></g><g clip-path="url(#cliphero32)"><path id="Ellipse 37_13" fill="#262865" d="M22 178.7c.3 9.9-4.2 10.8-9.5 10.5-5.3-.3-12-2.8-11.8-10.5.2-7.8 5.2-10 9.2-10 4 0 11.7 0 12 10z"/><g id="Group 237"><path id="Vector_71" fill="#FC6D26" d="M18 179.8l-.7-2.2-1.5-4.5c0-.3-.4-.3-.5 0l-1.4 4.5H9L7.6 173c-.1-.3-.4-.3-.5 0l-1.5 4.5-.7 2.2a.5.5 0 00.2.6l6.4 4.6 6.3-4.6a.5.5 0 00.2-.6"/><path id="Vector_72" fill="#E24329" d="M11.5 185l2.4-7.4H9l2.5 7.4z"/><path id="Vector_73" fill="#FC6D26" d="M11.5 185L9 177.6H5.6l5.9 7.4z"/><path id="Vector_74" fill="#FCA326" d="M5.6 177.6l-.7 2.2a.5.5 0 00.2.6l6.4 4.6-5.9-7.4z"/><path id="Vector_75" fill="#E24329" d="M5.6 177.6H9L7.6 173c-.1-.3-.4-.3-.5 0l-1.5 4.5z"/><path id="Vector_76" fill="#FC6D26" d="M11.5 185l2.4-7.4h3.4l-5.8 7.4z"/><path id="Vector_77" fill="#FCA326" d="M17.3 177.6l.7 2.2a.5.5 0 01-.2.6l-6.3 4.6 5.8-7.4z"/><path id="Vector_78" fill="#E24329" d="M17.3 177.6h-3.4l1.4-4.5c.1-.3.4-.3.5 0l1.5 4.5z"/></g></g><g clip-path="url(#cliphero12)"><path id="Ellipse 37_14" fill="#262865" d="M136 265.9c.3 8.8-3.8 9.6-8.5 9.3-4.6-.2-10.5-2.4-10.4-9.3.2-6.9 4.7-8.9 8.2-8.8 3.5 0 10.4 0 10.7 8.8z"/><path id="Vector_79" fill="#39A0FF" d="M122.8 262.4l.7 7.7 3 .8 3-.8.7-7.7h-7.4zm5.8 4.3l-.2 1.8v.2l-1.9.5-1.9-.5v-1.5h.8v.8l1.1.3 1-.3.1-1.3h-2l-.1-.2v-.7h2.2l.1-1h-3.5V264h4.5v.3l-.2 2.5zm0-5.2l-.6-.7h.6v-.5h-1.3v.4l.7.6h-.7v.5h1.3v-.3zm-1.6 0l-.6-.7h.6v-.5h-1.2v.4l.6.6h-.6v.5h1.2v-.3zm-1.5-.2h-.6v-.5h.6v-.5h-1.1v1.5h1.1v-.5z"/></g><g clip-path="url(#cliphero13)"><path id="Ellipse 37_15" fill="#262865" d="M176.1 258.8c.4 10.8-4.6 11.8-10.3 11.5-5.8-.3-13-3-12.8-11.5.2-8.4 5.7-10.9 10-10.8 4.3 0 12.7 0 13.1 10.8z"/><path id="Vector_80" fill="#D91404" fill-rule="evenodd" d="M161.6 263.2l8.6 1.1-3-4.8-5.6 3.7zm9.4-9l-.8 1-2.6 4s-.1.1 0 .2l2.5 4.2c0 .2.2.4.4.6l.5-10zm-11.5 4.2s.2.1.2 0l2.4-1.1.7-.6 2.2-2 .1-.2.8-1.5-1-.4-2.2 1.3-1 .8a132.6 132.6 0 00-1.7 1.7l-1 1.5.5.5zm3-.6l-1.2 5 5.6-3.6-4.4-1.4zm8-3.7l-4.8.8 1.6 4 3.2-4.8zm-8 3.3l4.4 1.5-1.6-4-2.8 2.5zm-3 2l-1.4 3.7 2.9-.1-1.4-3.6zm1.5 2.8l1.1-4.5-2.3 1.2 1.2 3.3zm8.9-8.3l-1.4-.4-2-.5h-.2l-.7 1.5 4.3-.6zm-2.7-1l3.8 1-.6-1.8-3.2.7zm-5.9 10.5H158.7v.1l9.6 1v-.1l-3-.4-4-.6zm-3.2-1.4l1.3-3v-.2l-.6-.5-.8 3.7h.1zm8.2-9.5l2.2-.4h.1v-.1l-3 .4c.2.1.5.2.7.1z" clip-rule="evenodd"/></g><g clip-path="url(#cliphero14)"><path id="Ellipse 37_16" fill="#262865" d="M211.1 267.8c.4 10.8-4.6 11.8-10.3 11.5-5.8-.3-13-3-12.8-11.5.2-8.4 5.7-10.9 10-10.8 4.3 0 12.7 0 13.1 10.8z"/><path id="Vector_81" fill="#0ACF83" d="M198 273.9a2 2 0 002-2v-2h-2a2 2 0 000 4z"/><path id="Vector_82" fill="#A259FF" d="M196 268c0-1.1.9-2 2-2h2v4h-2c-1.1 0-2-1-2-2z"/><path id="Vector_83" fill="#F24E1E" d="M196 264c0-1.1.9-2 2-2h2v4h-2c-1.1 0-2-1-2-2z"/><path id="Vector_84" fill="#FF7262" d="M200 262h2a2 2 0 110 4h-2v-4z"/><path id="Vector_85" fill="#1ABCFE" d="M204 268a2 2 0 11-4 0 2 2 0 014 0z"/></g><g clip-path="url(#cliphero15)"><path id="Ellipse 37_17" fill="#262865" d="M122.7 290c.2 7.5-3.3 8.2-7.3 8-4-.2-9-2.2-9-8 .2-6 4-7.7 7-7.7s9 0 9.3 7.6z"/><path id="Vector_86" fill="#CB3837" d="M108 288h13v4.6h-6.5v.7h-2.9v-.7H108V288zm.7 3.8h1.5v-2.3h.7v2.3h.7v-3h-2.9v3zm3.6-3v3.8h1.5v-.8h1.4v-3h-2.9zm1.5.7h.7v1.6h-.7v-1.6zm2.1-.7v3h1.5v-2.3h.7v2.3h.7v-2.3h.8v2.3h.7v-3h-4.4z"/></g><g clip-path="url(#cliphero16)"><path id="Ellipse 37_18" fill="#262865" d="M323 134c.4 11.3-4.8 12.3-10.8 12-6-.3-13.5-3.2-13.3-12 .2-8.7 5.9-11.3 10.4-11.2 4.5 0 13.2 0 13.6 11.2z"/><g id="Group_8"><g id="Group_9"><g id="Group_10"><path id="Vector_87" fill="#E535AB" d="M303.9 129.8l.6-.4 7.3 12.6-.7.4-7.2-12.6z"/></g></g><g id="Group_11"><g id="Group_12"><path id="Vector_88" fill="#E535AB" d="M318.2 130.8h-14.5v-.7h14.5v.7z"/></g></g><g id="Group_13"><g id="Group_14"><path id="Vector_89" fill="#E535AB" d="M304 130.4l7.3-4.2.3.7-7.2 4.2-.4-.7z"/></g></g><g id="Group_15"><g id="Group_16"><path id="Vector_90" fill="#E535AB" d="M310.3 141.3l7.3-4.2.4.7-7.3 4.2-.4-.7z"/></g></g><g id="Group_17"><g id="Group_18"><path id="Vector_91" fill="#E535AB" d="M304 137.8l.4-.7 7.2 4.2-.3.7-7.3-4.2z"/></g></g><g id="Group_19"><g id="Group_20"><path id="Vector_92" fill="#E535AB" d="M310.2 142l7.2-12.6.7.4-7.3 12.6-.6-.4z"/></g></g><g id="Group_21"><g id="Group_22"><path id="Vector_93" fill="#E535AB" d="M305 138.3h-.7v-8.4h.8v8.4z"/></g></g><g id="Group_23"><g id="Group_24"><path id="Vector_94" fill="#E535AB" d="M317.7 138.3h-.8v-8.4h.8v8.4z"/></g></g><g id="Group_25"><g id="Group_26"><path id="Vector_95" fill="#E535AB" d="M310.8 127.1l.3-.6 6.4 3.7-.4.5-6.3-3.6z"/></g></g><path id="Vector_96" fill="#E535AB" d="M318.7 129.7a1.6 1.6 0 10-2.8 1.5 1.6 1.6 0 002.8-1.5z"/><path id="Vector_97" fill="#E535AB" d="M306 137a1.6 1.6 0 10-2.7 1.5 1.6 1.6 0 002.7-1.6z"/><path id="Vector_98" fill="#E535AB" d="M303.3 129.7a1.6 1.6 0 002.7 1.5 1.6 1.6 0 00-2.7-1.5z"/><path id="Vector_99" fill="#E535AB" d="M316 137a1.6 1.6 0 102.7 1.5 1.6 1.6 0 00-2.8-1.6z"/><path id="Vector_100" fill="#E535AB" d="M311 125.2a1.6 1.6 0 100 3.2 1.6 1.6 0 000-3.2z"/><path id="Vector_101" fill="#E535AB" d="M311 139.8a1.6 1.6 0 100 3.2 1.6 1.6 0 000-3.2z"/></g></g><g clip-path="url(#cliphero17)"><path id="Ellipse 37_19" fill="#262865" d="M282 116.3c.5 11.2-4.8 12.2-10.7 11.9-6-.3-13.5-3.2-13.3-12 .2-8.7 5.9-11.3 10.4-11.2 4.5 0 13.2 0 13.6 11.3z"/><g id="Group_27"><path id="Vector_102" fill="#35495E" d="M265.8 111h2.5l1.7 2.8 1.6-2.7h2.5l-4.1 7.1-4.2-7.2z"/><path id="Vector_103" fill="#41B883" d="M263.1 111h2.7l4.2 7.2 4.1-7.1h2.7l-6.8 11.7-6.9-11.7z"/></g></g><g clip-path="url(#cliphero18)"><path id="Ellipse 37_20" fill="#262865" d="M306 84.3c.5 11.2-4.8 12.2-10.7 11.9-6-.3-13.5-3.2-13.3-12 .2-8.7 5.9-11.3 10.4-11.2 4.5 0 13.2 0 13.6 11.3z"/><path id="Vector_104" fill="#fff" d="M288 85v6h12V79h-12v6z"/><path id="Vector_105" fill="#007ACC" d="M288 85v6h12V79h-12v6zm9.7-.5c.3 0 .5.2.7.5l.3.3-.8.6-.1-.1a.7.7 0 00-.6-.4c-.4 0-.6.2-.6.5v.2c.1.2.3.3.8.5.8.4 1.2.6 1.4 1 .3.4.3 1 .1 1.4-.1.5-.6.9-1.3 1h-.9c-.5-.1-.9-.3-1.2-.7l-.3-.4.5-.3.4-.2.5.5c.4.2 1 .2 1.2 0a.5.5 0 000-.7c0-.2-.3-.3-.8-.5a3 3 0 01-1.1-.7l-.4-.6v-.8c.2-.6.6-1 1.3-1.1h.9zm-2.8.5v.5h-1.6V90h-1.1v-4.5h-1.6V85v-.5h4.2v.5z"/></g><g clip-path="url(#cliphero33)"><path id="Ellipse 38_4" fill="#262865" d="M312 231.6c-.4 12.6 5.4 13.7 12.1 13.4 6.7-.4 15.1-3.6 14.9-13.4-.2-9.8-6.6-12.7-11.6-12.6-5 0-14.9 0-15.4 12.6z"/><path id="Vector_106" fill="#D6D7EA" d="M327.9 232.9c-.6 0-1.2.2-1.6.7l-1-.7a2.6 2.6 0 000-1.8l1-.7a2.1 2.1 0 003.7-1.4c0-1.2-1-2-2.1-2a2.1 2.1 0 00-2 2.6l-1 .7c-.5-.5-1-.9-1.7-1v-1.2a2 2 0 001.7-2c0-1.2-1-2.1-2.2-2.1-1.1 0-2 1-2 2a2 2 0 001.6 2.1v1.2a2.7 2.7 0 00-2.3 2.7c0 1.3 1 2.4 2.3 2.6v1.3a2 2 0 00-1.7 2c0 1.1 1 2 2.1 2 1.2 0 2.2-.9 2.2-2a2 2 0 00-1.7-2v-1.3c.6-.1 1.2-.4 1.7-1l1 .8-.1.5c0 1.2 1 2.1 2 2.1 1.3 0 2.2-1 2.2-2 0-1.2-1-2.1-2.1-2.1zm0-5c.5 0 1 .5 1 1 0 .6-.5 1.1-1 1.1a1 1 0 01-1-1c0-.6.4-1 1-1zm-6.2-1.8c0-.6.5-1 1-1 .6 0 1 .4 1 1 0 .5-.4 1-1 1a1 1 0 01-1-1zm2 11.8c0 .6-.4 1-1 1a1 1 0 01-1-1c0-.6.5-1 1-1 .6 0 1 .4 1 1zm-1-4.5c-.8 0-1.4-.7-1.4-1.4 0-.8.6-1.5 1.4-1.5.8 0 1.5.7 1.5 1.5 0 .7-.7 1.4-1.5 1.4zm5.2 2.5a1 1 0 01-1-1c0-.5.4-1 1-1 .5 0 1 .5 1 1 0 .6-.5 1-1 1z"/></g><g clip-path="url(#cliphero34)"><path id="Ellipse 38_5" fill="#262865" d="M364 212.6c-.4 12.6 5.4 13.7 12.1 13.4 6.7-.4 15.1-3.6 14.9-13.4-.2-9.8-6.6-12.7-11.6-12.6-5 0-14.9 0-15.4 12.6z"/><g id="Group 234"><path id="Vector_107" fill="#F05138" d="M385.5 209.2l-.1-1a3.4 3.4 0 00-1.9-2.4l-1-.4H372.7a6 6 0 00-1.6.2l-.2.1-.7.4-.2.2a3 3 0 00-.7.8 3 3 0 00-.3 1l-.1 1v8l.1 1a3.4 3.4 0 001.9 2.5l1 .3 1 .1h8.5l1-.1c.4 0 .8-.2 1.1-.3a4 4 0 001-.6c.2-.3.4-.5.5-.9l.4-1 .1-1v-7.9z"/><path id="Vector_108" fill="#FEFEFE" d="M380 217.5c-1.5.8-3.5.8-5.6 0-1.6-.6-3-1.7-3.9-3.2l1.5.9c2 .9 4.2.8 5.7 0a29.4 29.4 0 01-6-6c1.6 1.3 3.3 2.5 5.1 3.6a35.8 35.8 0 01-3.6-4.3c1.8 1.7 3.8 3.3 6 4.6l.2.1.2-.4c.4-1.7-.1-3.7-1.3-5.3 2.8 1.7 4.5 4.7 3.8 7.3v.2c1.4 1.7 1 3.5.8 3.1-.8-1.4-2.2-1-3-.6z"/></g></g><g clip-path="url(#cliphero19)"><path id="Ellipse 37_21" fill="#262865" d="M398 175.6c-.3 9.6 4.1 10.4 9.2 10.2 5.1-.3 11.5-2.7 11.3-10.2-.1-7.5-5-9.7-8.8-9.6-3.8 0-11.3 0-11.7 9.6z"/><g id="AI" fill="#7579FF"><path d="M408.1 177l-.8-2.5a8 8 0 01-.3-1 7.5 7.5 0 01-.4 1l-.8 2.4h2.3zm2.8 3h-1.3l-.3-.1-.2-.3-.6-1.5h-3.1l-.6 1.5c0 .1 0 .2-.2.3H403l3.1-7.9h1.7l3.1 8zM413.3 180h-1.6v-8h1.6v8z"/></g></g><g clip-path="url(#cliphero20)"><path id="Ellipse 37_22" fill="#262865" d="M332.2 172.9c.4 10.8-4.6 11.8-10.4 11.5-5.8-.3-13-3-12.8-11.5.2-8.5 5.7-11 10-10.9 4.3 0 12.8 0 13.2 10.9z"/><g id="JS" fill="#FFEE52"><path d="M319.5 170v4.6a2 2 0 01-.6 1.5 2 2 0 01-1.5.6 2 2 0 01-2.1-2h1.3l.2.6.6.2c.3 0 .4 0 .6-.2l.1-.7V170h1.4zM323.3 176.7c-.5 0-.9-.1-1.3-.3a2 2 0 01-.8-.6l-.4-1h1.5c0 .2 0 .4.2.5.2.2.5.3.8.3.3 0 .5 0 .7-.2l.3-.6-.2-.5-.5-.3-.7-.2-1-.4a2 2 0 01-.8-.6l-.2-1c0-.4 0-.7.3-1 .2-.3.4-.5.8-.6a3 3 0 011.2-.3c.7 0 1.2.2 1.6.5.5.4.7.8.7 1.4h-1.4l-.3-.6a1 1 0 00-.7-.2 1 1 0 00-.6.2c-.2.1-.3.3-.3.6l.2.4.4.3.8.3c.4 0 .8.2 1 .3l.7.6a1.9 1.9 0 01-.8 2.7c-.3.2-.7.3-1.2.3z"/></g></g><g clip-path="url(#cliphero21)"><path id="Ellipse 37_23" fill="#262865" d="M349.2 93.9c.4 10.8-4.6 11.8-10.4 11.5-5.8-.3-13-3-12.8-11.5.2-8.5 5.7-11 10-10.9 4.3 0 12.8 0 13.2 10.9z"/><path id="Vector_109" fill="#4FAA41" fill-rule="evenodd" d="M340.6 89.5a10 10 0 00-2.1-3.8l-.7-.9-.3-.6V84c0 .4-.3.7-.5.9l-.8.8-.7 1.1-.7 1.3-.4 1.2-.4 2.6v1l.2 1.3c.4 1.6 1.3 3 2.4 4.1l.6.6.1.4v.5l.1.6v.4h.1l.2.1.2.1v-2l.2-.2.5-.5.8-.9a7 7 0 001.2-2.3l.2-1a9.6 9.6 0 00-.2-4.6zm-3.3 9l.1-.4v.4z" clip-rule="evenodd"/></g><g clip-path="url(#cliphero22)"><path id="Ellipse 37_24" fill="#262865" d="M295.2 182.9c.4 10.8-4.6 11.8-10.4 11.5-5.8-.3-13-3-12.8-11.5.2-8.5 5.7-11 10-10.9 4.3 0 12.8 0 13.2 10.9z"/><path id="Vector_110" fill="#8ED6FB" d="M291.5 187.9l-6.8 3.8v-3l4.2-2.3 2.6 1.5zm.5-.4v-8.1l-2.5 1.4v5.2l2.5 1.5zm-14.7.4l6.8 3.8v-3l-4.3-2.3-2.5 1.5zm-.5-.4v-8.1l2.5 1.4v5.2l-2.5 1.5zm.3-8.7l7-4v3l-4.5 2.5-2.5-1.5zm14.6 0l-7-4v3l4.5 2.5 2.5-1.5z"/><path id="Vector_111" fill="#1C78C0" d="M284 188l-4.1-2.3v-4.5l4.2 2.4v4.5zm.7 0l4.2-2.3v-4.5l-4.2 2.4v4.5zm-4.5-7.4l4.2-2.3 4.2 2.3-4.2 2.5-4.2-2.5z"/></g><g clip-path="url(#cliphero23)"><path id="Ellipse 37_25" fill="#262865" d="M606 159.5c-.5 14.4 6.2 15.7 13.8 15.3 7.7-.4 17.3-4 17-15.3-.1-11.3-7.5-14.6-13.2-14.5-5.8 0-17 0-17.6 14.5z"/><path id="Vector 319" fill="#D81480" d="M628.5 155l-7-3-7.5 3 1.5 9 6 3.5 6-3.5 1-9z"/><path id="Vector 320" fill="#fff" fill-rule="evenodd" d="M624 163h1.2l-3.6-8-3.6 8h1.2l.8-2h3.2l.8 2zm-2.4-5.2l.8 2h-1.6l.8-2z" clip-rule="evenodd"/></g><g clip-path="url(#cliphero24)"><path id="Ellipse 37_26" fill="#262865" d="M558 141.5c-.5 14.4 6.2 15.7 13.8 15.3 7.7-.4 17.3-4 17-15.3-.1-11.3-7.5-14.6-13.2-14.5-5.8 0-17 0-17.6 14.5z"/><path id="Vector_112" fill="#FD4F31" fill-rule="evenodd" d="M565.3 132h-.5a2.3 2.3 0 00-1.7 1.9l.1.1.5.9.5.7.4.8.7 1 .4.8.7 1.1.8 1.4.7 1.1h.1c.3 0 .6 0 1-.2l1.4-.3.8-.2a665 665 0 003-.7l.8-.2 1.5-.4 1.6-.4h.1l-.5-.7-.4-.6-.5-.6-.4-.7-.5-.6-.4-.6-.5-.7-.2-.3v-.5h.2l.3-.2h.6l.6-.2h.4a674 674 0 011.2-.2l.6-.1.4-.1h.5l.6-.2h.3l.3.1v.1a2.4 2.4 0 00-1.4-1.3h-14.1zm5.6 18l-.7-1.2-.8-1.4-.9-1.5-.8-1.4-.4-1h-.2l-.4.2-.7.1-1.4.4-1.5.4h-.1v3.1l.1.3c0 .3.2.6.4.9a2.4 2.4 0 001.6 1h.2" clip-rule="evenodd"/><path id="Vector_113" fill="#FD4F31" fill-rule="evenodd" d="M563.6 143l1.7-.5.7-.2h.4c.1 0 .1-.1 0-.2l-.2-.4-.7-1.3-.7-1.2-.8-1.3-.6-1.1-.3-.5h-.1v6.7h.6zm17.4 4.8l-.7.2-1.5.6c-.3 0-.5.2-.8.3l-1.7.6-1 .4-.3.1h3.8l.4-.1a2.4 2.4 0 001.6-1.2c.2-.2.2-.5.3-.8v-.1h-.1zm-.3-5.1l-.5-.7-.7-1-.3-.3s0-.1-.1 0l-1.3.2-.8.2-1.5.4-1.4.3-1.6.4-1.5.4-1.4.3-.8.2h-.1v.1l.7 1.1.7 1.3.8 1.4.5.8.5.9.2.2.1.1h.4l1.4-.5 1.1-.3 1.1-.4 1-.4 1.2-.3 1.3-.5 1.3-.4h.1v-.1a2423.7 2423.7 0 010-2.9l-.4-.5zm-.1-8.5a.3.3 0 00-.4-.1h-.2l-.7.2-1 .1-.8.2-1 .2h-.2v.2l.7 1 1 1.2.7 1 .6.9 1.8-.4V135v-.2l-.5-.5zm.5 6l-.8.1.8 1.1v-.4-.8z" clip-rule="evenodd"/></g><g clip-path="url(#cliphero25)"><path id="Ellipse 37_27" fill="#262865" d="M652 103.7c-.4 12.7 5.4 13.8 12.2 13.4 6.7-.3 15.1-3.5 15-13.4-.3-9.9-6.7-12.8-11.8-12.7-5 0-14.9 0-15.4 12.7z"/><g id="AR" fill="#9494D9"><path d="M663.2 105.1l-.8-2.4a9 9 0 01-.3-1 8 8 0 01-.4 1l-.8 2.4h2.3zm2.8 3h-1.6l-.2-.3-.6-1.5h-3.1l-.6 1.5c0 .1 0 .2-.2.3h-1.6l3.1-8h1.7l3.1 8zM669.3 104l.7-.1.5-.3.2-.5.1-.5a1 1 0 00-.4-.9c-.2-.2-.6-.3-1.1-.3h-.9v2.6h.9zm3.9 4.2h-1.5c-.3 0-.5-.1-.6-.3l-1.6-2.5-.2-.2H668.4v3h-1.6v-8h2.5l1.4.1 1 .5c.3.2.4.5.6.8l.1.9a2.5 2.5 0 01-.4 1.4l-.5.5-.7.4a1.6 1.6 0 01.5.5l1.9 2.9z"/></g></g><g clip-path="url(#cliphero26)"><path id="Ellipse 37_28" fill="#262865" d="M623 43.7c-.4 12.7 5.4 13.8 12.2 13.4 6.7-.3 15.1-3.5 15-13.4-.3-9.9-6.7-12.8-11.8-12.7-5 0-14.9 0-15.4 12.7z"/><path id="Vector_114" fill="#fff" d="M631.4 34.7a10 10 0 1111.2 16.6 10 10 0 01-11.2-16.6z"/><path id="Vector_115" fill="#2C8EBB" d="M642.7 45.7c-.7 0-1.3.4-1.8.7-1 .6-1.5.5-1.5.5s.3-1-.1-2.2c-.5-1.3-1.2-1.6-1.1-1.7.2-.4.8-1 1-2.3.2-.7.2-2-.2-2.6l-.6.2-.6-1.3c-.5-.3-1 1.3-1 1.3a2.3 2.3 0 00-1.9.7l-.6.4-.3.5c-.4.8.5 1.8.5 1.8s-1 .7-1.4 1.5a4 4 0 00-.3 2s-.7.5-.7 1.2a2 2 0 00.3 1.3.3.3 0 00.3.1h.1s-.5.5 0 .7c.4.3 1 .4 1.4 0 .3-.2.3-.8.4-1l.2.1.2.2s-.6.2-.4.9c.1.2.4.3 1 .3 0 0 2.1-.1 2.7-.3.1 0 .3 0 .4-.2.9-.3 1.7-.6 2.5-1.1.8-.5 1-.7 1.7-.8.5-.1.5-1-.2-.9z"/><path id="Vector_116" fill="#2C8EBB" d="M637 33a10 10 0 100 20 10 10 0 000-20zm6 14.2a4 4 0 00-1.5.7c-.8.5-1.6.9-2.5 1.1l-.6.3c-.6.2-2.7.3-2.9.3-.7 0-1-.2-1.2-.4-.6.2-1.3.1-1.8-.1a.9.9 0 01-.5-1l-.1-.2c-.3-.5-.4-1-.4-1.6 0-.6.5-1.1.8-1.4 0-.7 0-1.3.3-1.9.2-.6.6-1 1-1.5-.2-.4-.5-1-.2-1.8.2-.5.4-.8.7-.9l.4-.2c.5-.5 1.2-.9 2-1v-.2c.3-.5.5-.8.9-1a.8.8 0 01.7.2s.2.1.6 1h.5a.6.6 0 01.4.2 5.3 5.3 0 01-.7 5.2 4.2 4.2 0 011.1 3.2l.5-.3c.5-.3 1.3-.8 2.2-.8a1 1 0 011.1 1 1 1 0 01-.8 1z"/></g><g clip-path="url(#cliphero27)"><path id="Ellipse 37_29" fill="#262865" d="M415 81.5c-.5 15.5 6.6 16.9 14.8 16.4 8.2-.4 18.4-4.3 18.2-16.4-.3-12-8-15.6-14.2-15.5-6.2 0-18.2 0-18.8 15.5z"/><g id="Group 235"><path id="Vector_117" fill="#3A4D54" fill-rule="evenodd" d="M433.4 78.3h2.7V81h1.3a6.1 6.1 0 002.7-.7c-.4-.5-.6-1.1-.6-1.7 0-.9 0-2 .7-2.6l.2-.3.4.3c.8.6 1.5 1.5 1.6 2.6a4 4 0 013.1.3l.3.2-.1.4c-.8 1.4-2.4 2-3.9 1.8-2.3 5.7-7.2 8.4-13.3 8.4-3.1 0-6-1.2-7.6-4l-.3-.5a7.6 7.6 0 01-.6-3.9V81h2.3v-2.6h2.7v-2.7h5.2V73h3.2v5.3z" clip-rule="evenodd"/><path id="Vector_118" fill="#00AADA" d="M442 79.3c.2-1.4-.9-2.5-1.5-3-.7.8-.9 3 .3 4-.7.6-2 1.1-3.4 1.1h-17a7 7 0 00.8 4l.2.3c0 .2.2.4.4.6h1.9c1.1 0 2 0 2.8-.3h.3c0 .2 0 .3-.2.4h-.3c-.5.2-1.1.3-2 .3H422a8.2 8.2 0 006.4 2.6c5.8 0 10.8-2.6 13-8.4 1.6.1 3-.3 3.7-1.6-1-.6-2.4-.4-3.2 0z"/><path id="Vector_119" fill="#28B8EB" d="M442 79.3c.2-1.4-.9-2.5-1.5-3-.7.8-.9 3 .3 4-.7.6-2 1.1-3.4 1.1h-16c0 2.3.8 4 2.3 5 1.1 0 2-.2 2.8-.4h.3c0 .2 0 .3-.2.3l-.3.1a9 9 0 01-2 .3c2 1 4.9 1 8.2-.2 3.7-1.5 7.2-4.2 9.6-7.3h-.1z"/><path id="Vector_120" fill="#028BB8" d="M420.5 83.2c.1.8.3 1.5.7 2.2l.2.3c0 .2.2.4.4.6h1.9c1.1 0 2 0 2.8-.3h.3c0 .2 0 .3-.2.4h-.3a9 9 0 01-2 .4H422a8.3 8.3 0 006.4 2.5c5 0 9.4-1.9 12-6h-20v-.1z"/><path id="Vector_121" fill="#019BC6" d="M421.6 83.2a5 5 0 002 3.2c1.2 0 2.2-.2 2.9-.4h.3c0 .2 0 .3-.2.3l-.3.1a9 9 0 01-2 .3c2 1 4.9 1 8.2-.2 2-.8 4-2 5.7-3.3h-16.6z"/><path id="Vector_122" fill="#00ACD3" fill-rule="evenodd" d="M422.8 78.7h2.3V81h-2.3v-2.3zm.2.2h.1v1.9h-.1v-1.9zm.3 0h.2v1.9h-.2v-1.9zm.3 0h.2v1.9h-.2v-1.9zm.4 0h.2v1.9h-.2v-1.9zm.3 0h.2v1.9h-.2v-1.9zm.4 0h.2v1.9h-.2v-1.9zm.7-2.8h2.3v2.3h-2.3V76zm.2.2h.2v1.9h-.2v-2zm.3 0h.2v1.9h-.2v-2zm.4 0h.2v1.9h-.2v-2zm.3 0h.2v1.9h-.2v-2zm.4 0h.2v1.9h-.2v-2zm.3 0h.2v1.9h-.2v-2z" clip-rule="evenodd"/><path id="Vector_123" fill="#23C2EE" fill-rule="evenodd" d="M425.4 78.7h2.3V81h-2.3v-2.3zm.2.2h.2v1.9h-.2v-1.9zm.3 0h.2v1.9h-.2v-1.9zm.4 0h.2v1.9h-.2v-1.9zm.3 0h.2v1.9h-.2v-1.9zm.4 0h.2v1.9h-.2v-1.9zm.3 0h.2v1.9h-.2v-1.9z" clip-rule="evenodd"/><path id="Vector_124" fill="#00ACD3" fill-rule="evenodd" d="M428 78.7h2.3V81H428v-2.3zm.2.2h.2v1.9h-.2v-1.9zm.4 0h.2v1.9h-.2v-1.9zm.3 0h.2v1.9h-.2v-1.9zm.4 0h.1v1.9h-.1v-1.9zm.3 0h.2v1.9h-.2v-1.9zm.4 0h.2v1.9h-.2v-1.9z" clip-rule="evenodd"/><path id="Vector_125" fill="#23C2EE" fill-rule="evenodd" d="M428 76h2.3v2.4H428V76zm.2.3h.2v1.9h-.2v-2zm.4 0h.2v1.9h-.2v-2zm.3 0h.2v1.9h-.2v-2zm.4 0h.1v1.9h-.1v-2zm.3 0h.2v1.9h-.2v-2zm.4 0h.2v1.9h-.2v-2zm.7 2.4h2.3V81h-2.3v-2.3zm.2.2h.2v1.9h-.2v-1.9zm.3 0h.2v1.9h-.2v-1.9zm.4 0h.1v1.9h-.1v-1.9zm.3 0h.2v1.9h-.2v-1.9zm.4 0h.1v1.9h-.1v-1.9zm.3 0h.2v1.9h-.2v-1.9z" clip-rule="evenodd"/><path id="Vector_126" fill="#00ACD3" fill-rule="evenodd" d="M430.7 76h2.3v2.4h-2.3V76zm.2.3h.2v1.9h-.2v-2zm.3 0h.2v1.9h-.2v-2zm.4 0h.1v1.9h-.1v-2zm.3 0h.2v1.9h-.2v-2zm.4 0h.1v1.9h-.1v-2zm.3 0h.2v1.9h-.2v-2z" clip-rule="evenodd"/><path id="Vector_127" fill="#23C2EE" fill-rule="evenodd" d="M430.7 73.4h2.3v2.3h-2.3v-2.3zm.2.2h.2v2h-.2v-2zm.3 0h.2v2h-.2v-2zm.4 0h.1v2h-.1v-2zm.3 0h.2v2h-.2v-2zm.4 0h.1v2h-.1v-2zm.3 0h.2v2h-.2v-2z" clip-rule="evenodd"/><path id="Vector_128" fill="#00ACD3" fill-rule="evenodd" d="M433.3 78.7h2.3V81h-2.3v-2.3zm.2.2h.2v1.9h-.2v-1.9zm.4 0h.1v1.9h-.1v-1.9zm.3 0h.2v1.9h-.2v-1.9zm.4 0h.1v1.9h-.1v-1.9zm.3 0h.2v1.9h-.2v-1.9zm.4 0h.1v1.9h-.1v-1.9z" clip-rule="evenodd"/><path id="Vector_129" fill="#D4EEF1" fill-rule="evenodd" d="M427.6 84.7c.3 0 .6.3.6.6 0 .4-.3.7-.6.7a.6.6 0 01-.7-.7c0-.3.3-.6.7-.6z" clip-rule="evenodd"/><path id="Vector_130" fill="#3A4D54" fill-rule="evenodd" d="M427.6 84.9h.1v.2l.1.2.2-.1v.1a.4.4 0 11-.9 0c0-.2.2-.4.5-.4zm-7.3-1.5h20l.5-.4a3 3 0 01-1.5-.5c-.8 1.1-5.4.7-5.7-.2-1 1.2-4 1.2-5 0-.4.9-5 1.3-5.8.2-.4.4-1.4.7-2.5.6v.3z" clip-rule="evenodd"/><path id="Vector_131" fill="#BFDBE0" d="M429.2 89.3a5.6 5.6 0 01-2.9-2.9c-.6.2-1.3.3-2 .3H422a8.4 8.4 0 006.4 2.6h.7z"/><path id="Vector_132" fill="#D4EEF1" d="M427 87.4a7 7 0 01-.7-1c-.6.2-1.3.3-2 .3a7 7 0 002.6.7z"/></g></g><g clip-path="url(#cliphero28)"><path id="Ellipse 37_30" fill="#262865" d="M560 43.6c-.4 12.6 5.4 13.7 12.1 13.4 6.7-.4 15.1-3.6 14.9-13.4-.2-9.8-6.6-12.7-11.6-12.6-5 0-14.9 0-15.4 12.6z"/><g id="VR" fill="#7579FF"><path d="M574 40l-3.3 8h-1.5l-3.2-8h1.3l.4.1.2.3 1.7 4.6a8.8 8.8 0 01.4 1.2 12 12 0 01.3-1.2l1.7-4.6.2-.3.4-.1h1.3zM577.2 43.8l.6-.1c.2 0 .4-.2.5-.3.2-.1.2-.3.3-.4v-.6a1 1 0 00-.3-.8c-.2-.2-.6-.3-1.1-.3h-.9v2.5h.9zM581 48h-1.5c-.2 0-.5-.1-.6-.3l-1.5-2.5-.2-.2H576.3v3h-1.6v-8h2.5c.5 0 1 0 1.4.2.4 0 .7.2 1 .5l.5.7.2 1a2.4 2.4 0 01-.4 1.3l-.6.5-.7.4a1.6 1.6 0 01.6.5L581 48z"/></g></g></g></g><defs><linearGradient id="paint0_linear" x1="616.5" x2="476" y1="239.5" y2="290.5" gradientUnits="userSpaceOnUse"><stop stop-color="#fff" stop-opacity="0"/><stop offset="1" stop-color="#EEF"/></linearGradient><linearGradient id="paint1_linear" x1="616.5" x2="476" y1="239.5" y2="290.5" gradientUnits="userSpaceOnUse"><stop stop-color="#fff" stop-opacity="0"/><stop offset="1" stop-color="#EEF"/></linearGradient><linearGradient id="paint2_linear" x1="616.5" x2="476" y1="239.5" y2="290.5" gradientUnits="userSpaceOnUse"><stop stop-color="#fff" stop-opacity="0"/><stop offset="1" stop-color="#EEF"/></linearGradient><linearGradient id="paint3_linear" x1="616.5" x2="476" y1="239.5" y2="290.5" gradientUnits="userSpaceOnUse"><stop stop-color="#fff" stop-opacity="0"/><stop offset="1" stop-color="#EEF"/></linearGradient><linearGradient id="paint4_linear" x1="698.5" x2="602.5" y1="2.5" y2="119.9" gradientUnits="userSpaceOnUse"><stop stop-color="#191A45" stop-opacity="0"/><stop offset="1" stop-color="#161741"/></linearGradient><linearGradient id="paint5_linear" x1="371.2" x2="371.2" y1="68" y2="108.6" gradientUnits="userSpaceOnUse"><stop stop-color="#C7C8EE" stop-opacity="0"/><stop offset="1" stop-color="#C7C8EE"/></linearGradient><linearGradient id="paint6_linear" x1="368.9" x2="367.8" y1="198.4" y2="122.1" gradientUnits="userSpaceOnUse"><stop stop-color="#fff" stop-opacity=".1"/><stop offset="1" stop-color="#E6E6FF"/></linearGradient><linearGradient id="paint7_linear" x1="243.5" x2="147.6" y1="97.1" y2="214.5" gradientUnits="userSpaceOnUse"><stop stop-color="#191A45" stop-opacity="0"/><stop offset="1" stop-color="#131438" stop-opacity=".5"/></linearGradient><linearGradient id="paint8_linear" x1="347" x2="222.6" y1="213.2" y2="319.8" gradientUnits="userSpaceOnUse"><stop stop-color="#191A44" stop-opacity="0"/><stop offset="1" stop-color="#16173E" stop-opacity=".6"/></linearGradient><linearGradient id="paint9_linear" x1="350.2" x2="254.3" y1="69.6" y2="187" gradientUnits="userSpaceOnUse"><stop stop-color="#191A45" stop-opacity="0"/><stop offset="1" stop-color="#16173E" stop-opacity=".7"/></linearGradient><linearGradient id="paint10_linear" x1="145.5" x2="188.9" y1="137.1" y2="157.7" gradientUnits="userSpaceOnUse"><stop stop-color="#fff" stop-opacity="0"/><stop offset="1" stop-color="#EEF"/></linearGradient><linearGradient id="paint11_linear" x1="521.9" x2="521.9" y1="72.2" y2="82.9" gradientUnits="userSpaceOnUse"><stop stop-color="#0994DC"/><stop offset=".3" stop-color="#66CEF5"/><stop offset=".8" stop-color="#127BCA"/><stop offset="1" stop-color="#127BCA"/></linearGradient><linearGradient id="paint12_linear" x1="522.3" x2="522.3" y1="71.8" y2="82.9" gradientUnits="userSpaceOnUse"><stop stop-color="#0E76BC"/><stop offset=".4" stop-color="#36AEE8"/><stop offset=".8" stop-color="#00ADEF"/><stop offset="1" stop-color="#00ADEF"/></linearGradient><linearGradient id="paint13_linear" x1="524.5" x2="524.5" y1="80.5" y2="71.7" gradientUnits="userSpaceOnUse"><stop stop-color="#1C63B7"/><stop offset=".5" stop-color="#33BDF2"/><stop offset="1" stop-color="#33BDF2" stop-opacity=".4"/></linearGradient><linearGradient id="paint14_linear" x1="523.9" x2="523.9" y1="70.7" y2="82.2" gradientUnits="userSpaceOnUse"><stop stop-color="#166AB8"/><stop offset=".4" stop-color="#36AEE8"/><stop offset=".8" stop-color="#0798DD"/><stop offset="1" stop-color="#0798DD"/></linearGradient><linearGradient id="paint15_linear" x1="523.1" x2="523.1" y1="70.8" y2="83" gradientUnits="userSpaceOnUse"><stop stop-color="#124379"/><stop offset=".4" stop-color="#1487CB"/><stop offset=".8" stop-color="#165197"/><stop offset="1" stop-color="#165197"/></linearGradient><linearGradient id="paint16_linear" x1="518" x2="519.8" y1="74.4" y2="74.4" gradientUnits="userSpaceOnUse"><stop stop-color="#33BDF2" stop-opacity=".7"/><stop offset="1" stop-color="#1DACD8"/></linearGradient><linearGradient id="paint17_linear" x1="531.1" x2="531.1" y1="80.3" y2="71.7" gradientUnits="userSpaceOnUse"><stop stop-color="#136AB4"/><stop offset=".6" stop-color="#59CAF5" stop-opacity=".5"/><stop offset="1" stop-color="#59CAF5" stop-opacity=".2"/></linearGradient><linearGradient id="paint18_linear" x1="511.9" x2="518.3" y1="76.4" y2="76.4" gradientUnits="userSpaceOnUse"><stop stop-color="#05A1E6" stop-opacity=".2"/><stop offset="1" stop-color="#05A1E6"/></linearGradient><linearGradient id="paint19_linear" x1="515.6" x2="515.6" y1="80.5" y2="71.8" gradientUnits="userSpaceOnUse"><stop stop-color="#318ED5"/><stop offset="1" stop-color="#38A7E4"/></linearGradient><linearGradient id="paint20_linear" x1="516.1" x2="516.1" y1="80.5" y2="72" gradientUnits="userSpaceOnUse"><stop stop-color="#05A1E6"/><stop offset="1" stop-color="#05A1E6" stop-opacity=".5"/></linearGradient><linearGradient id="paint21_linear" x1="516.6" x2="516.6" y1="81" y2="73.8" gradientUnits="userSpaceOnUse"><stop stop-color="#1959A6"/><stop offset=".5" stop-color="#05A1E6"/><stop offset=".9" stop-color="#7EC5EA"/><stop offset="1" stop-color="#7EC5EA"/></linearGradient><linearGradient id="paint22_linear" x1="516.8" x2="515.4" y1="80.5" y2="72.7" gradientUnits="userSpaceOnUse"><stop stop-color="#165096"/><stop offset="1" stop-color="#0D82CA"/></linearGradient><linearGradient id="paint23_linear" x1="529.6" x2="529.6" y1="76.1" y2="72" gradientUnits="userSpaceOnUse"><stop stop-color="#05A1E6"/><stop offset=".9" stop-color="#0495D6"/><stop offset="1" stop-color="#0495D6"/></linearGradient><linearGradient id="paint24_linear" x1="531.6" x2="529.9" y1="71.7" y2="81" gradientUnits="userSpaceOnUse"><stop stop-color="#38A7E4" stop-opacity=".3"/><stop offset="1" stop-color="#0E88D3"/><stop offset="1" stop-color="#0E88D3"/></linearGradient><linearGradient id="paint25_linear" x1="530" x2="530" y1="72" y2="80.9" gradientUnits="userSpaceOnUse"><stop stop-color="#168CD4"/><stop offset=".5" stop-color="#1C87CC"/><stop offset="1" stop-color="#154B8D"/></linearGradient><linearGradient id="paint26_linear" x1="517.9" x2="528.3" y1="71.1" y2="75.4" gradientUnits="userSpaceOnUse"><stop stop-color="#97D6EE"/><stop offset=".7" stop-color="#55C1EA"/><stop offset="1" stop-color="#55C1EA"/></linearGradient><linearGradient id="paint27_linear" x1="520.8" x2="529" y1="73.6" y2="69.9" gradientUnits="userSpaceOnUse"><stop stop-color="#7ACCEC"/><stop offset="1" stop-color="#3FB7ED"/></linearGradient><linearGradient id="paint28_linear" x1="528.8" x2="528.8" y1="72.5" y2="81.2" gradientUnits="userSpaceOnUse"><stop stop-color="#1DA7E7"/><stop offset="1" stop-color="#37ABE7" stop-opacity="0"/></linearGradient><clipPath id="clip0"><path fill="#fff" d="M0 0h36.1v34.9H0z" transform="matrix(-1 0 0 1 540.1 107)"/></clipPath><clipPath id="clip1"><path fill="#fff" d="M441 126h36.8v35.5H441z"/></clipPath><clipPath id="clip2"><path fill="#fff" d="M0 0h23.4v22.6H0z" transform="matrix(-1 0 0 1 160.4 57)"/></clipPath><clipPath id="clip3"><path fill="#fff" d="M0 0h23.4v22.6H0z" transform="matrix(-1 0 0 1 126.4 87)"/></clipPath><clipPath id="clip4"><path fill="#fff" d="M204 78h23.8v23H204z"/></clipPath><clipPath id="clip5"><path fill="#fff" d="M149 98h23.8v23H149z"/></clipPath><clipPath id="clip6"><path fill="#fff" d="M180 50h23.8v23H180z"/></clipPath><clipPath id="clip7"><path fill="#fff" d="M0 0h18.7v18.1H0z" transform="matrix(-1 0 0 1 77.7 214)"/></clipPath><clipPath id="clip8"><path fill="#fff" d="M0 0h18.7v18.1H0z" transform="matrix(-1 0 0 1 56.7 177)"/></clipPath><clipPath id="clip9"><path fill="#fff" d="M0 0h18.6v18H0z" transform="matrix(-1 0 0 1 36.6 215)"/></clipPath><clipPath id="clip10"><path fill="#fff" d="M0 0h22.7v21.9H0z" transform="matrix(-1 0 0 1 91.7 152)"/></clipPath><clipPath id="clip11"><path fill="#fff" d="M0 0h22.7v21.9H0z" transform="matrix(-1 0 0 1 60.7 134)"/></clipPath><clipPath id="clip12"><path fill="#fff" d="M117.1 257.1H136v18.2h-18.9z"/></clipPath><clipPath id="clip13"><path fill="#fff" d="M153 248h23.1v22.3H153z"/></clipPath><clipPath id="clip14"><path fill="#fff" d="M188 257h23.1v22.3H188z"/></clipPath><clipPath id="clip15"><path fill="#fff" d="M106.5 282.3h16.2V298h-16.2z"/></clipPath><clipPath id="clip16"><path fill="#fff" d="M0 0h24.1v23.2H0z" transform="matrix(-1 0 0 1 323 122.8)"/></clipPath><clipPath id="clip17"><path fill="#fff" d="M0 0h24.1v23.2H0z" transform="matrix(-1 0 0 1 282 105)"/></clipPath><clipPath id="clip18"><path fill="#fff" d="M0 0h24.1v23.2H0z" transform="matrix(-1 0 0 1 306 73)"/></clipPath><clipPath id="clip19"><path fill="#fff" d="M0 0h20.5v19.8H0z" transform="matrix(-1 0 0 1 418.5 166)"/></clipPath><clipPath id="clip20"><path fill="#fff" d="M309 162h23.2v22.4H309z"/></clipPath><clipPath id="clip21"><path fill="#fff" d="M326 83h23.2v22.4H326z"/></clipPath><clipPath id="clip22"><path fill="#fff" d="M272 172h23.2v22.4H272z"/></clipPath><clipPath id="clip23"><path fill="#fff" d="M0 0h30.9v29.8H0z" transform="matrix(-1 0 0 1 636.9 145)"/></clipPath><clipPath id="clip24"><path fill="#fff" d="M0 0h30.9v29.8H0z" transform="matrix(-1 0 0 1 588.9 127)"/></clipPath><clipPath id="clip25"><path fill="#fff" d="M0 0h27.1v26.2H0z" transform="matrix(-1 0 0 1 679.1 91)"/></clipPath><clipPath id="clip26"><path fill="#fff" d="M0 0h27.1v26.2H0z" transform="matrix(-1 0 0 1 650.1 31)"/></clipPath><clipPath id="clip27"><path fill="#fff" d="M0 0h33v32H0z" transform="matrix(-1 0 0 1 448 66)"/></clipPath><clipPath id="clip28"><path fill="#fff" d="M0 0h27v26H0z" transform="matrix(-1 0 0 1 587 31)"/></clipPath><filter id="filter0_f" width="77" height="61.8" x="473.2" y="311.6" color-interpolation-filters="sRGB" filterUnits="userSpaceOnUse"><feFlood flood-opacity="0" result="BackgroundImageFix"/><feBlend in="SourceGraphic" in2="BackgroundImageFix" result="shape"/><feGaussianBlur result="effect1_foregroundBlur" stdDeviation="11"/></filter><filter id="filter1_f" width="79.7" height="63.3" x="471.1" y="400.5" color-interpolation-filters="sRGB" filterUnits="userSpaceOnUse"><feFlood flood-opacity="0" result="BackgroundImageFix"/><feBlend in="SourceGraphic" in2="BackgroundImageFix" result="shape"/><feGaussianBlur result="effect1_foregroundBlur" stdDeviation="11"/></filter></defs></svg>